<svg width="1065.364" height="1065.364" viewBox="0 0 281.878 281.877" xmlns="http://www.w3.org/2000/svg"><circle style="fill:#9cf;stroke-width:1" cx="140.939" cy="140.939" r="140.939"/><path style="fill:#fff;fill-opacity:1;stroke:none;stroke-width:1;stroke-dasharray:none" d="M-210.843 4.646c27.518.086 55.548 14.804 73.04 35.67 21.682 21.895 23.722 55.324 15.454 83.525-10.842 32.173-18.095 67.255-40.412 93.91-15.412 20.325-45.05 27.996-67.255 14.066-35.694-22.14-45.291-68.008-43.483-107.22-.411-5.604-.016-8.22.7-8.857a125.075 125.075 0 0 0-.514-5.957c-.59-4.757-1.678-9.434-3.135-13.995-.85-2.545-1.572-5.129-2.336-7.7l-.291-.916.854-.025c-.04-.184-.085-.367-.122-.551-3.267-26.937 8.973-56.423 31.332-72.2 11.258-6.804 23.66-9.789 36.168-9.75z" transform="translate(345.419 25.842)"/><path style="fill:#000;fill-opacity:1;stroke:none;stroke-width:1;stroke-dasharray:none" d="M-274.333 98.09c-8.181-36.848 11.895-83.069 50.994-91.622 58.713-8.666 115.963 54.715 97.93 112.252-16.6 36.672-19.418 82.745-53.513 109.04-17.384 14.328-43.196 10.447-58.523-4.97-26.765-23.027-32.068-60.324-31.707-93.666.789-10.263-6.21-23.063-4.889-5.07-1.808 39.213 7.79 85.081 43.483 107.222 22.206 13.929 51.843 6.258 67.255-14.066 22.317-26.656 29.57-61.738 40.413-93.911 8.268-28.2 6.228-61.63-15.455-83.525-25.443-30.35-73.182-47.695-109.208-25.92-22.36 15.777-34.599 45.263-31.332 72.2.85 4.222 2.34 8.332 4.552 12.035z" transform="translate(345.419 25.842)"/><path style="fill:#000;fill-opacity:1;stroke:none;stroke-width:1;stroke-dasharray:none" d="M6.56 82.9c14.247.187 27.238 6.993 38.761 14.48 6.01 3.905 6.09 14.785-1.632 11.12-7.437-3.531-39.707-7.952-38.83-9.444-5.102-1.662-5.524-14.453 1.7-16.156zm-43.89-3.486c8.06.12 16.465 2.007 22.907 7.065 3.084 3.454-.955 7.804-4.791 7.79-17.005-.86-52.698 11.077-49.736-2.51 1.778-3.068 5.34-4.535 8.24-6.373 7.147-3.863 15.253-5.965 23.38-5.972z" transform="translate(160.211 25.842)"/><path style="fill:#000;fill-opacity:1;stroke:none;stroke-width:.938389;stroke-dasharray:none" d="M-2.947 91.202c-6.01 9.11-8.812 20.15-9.317 30.959.159 9.246 2.312 18.786 7.418 26.572 4.747 3.263 7.17 10.459.873 13.71-3.944 3.005-10.991 1.47-11.83-1.21-1.255-2.223-6.632-4.64-2.641-.855 4.189 4.228 11.002 8.126 16.722 4.358 5.894-2.729 5.964-10.328.678-13.686-5.146-5.935-7.057-14.057-8.262-21.647-1.392-11.83 1.715-24.085 7.814-34.237 2.744-2.573.356-2.343-1.455-3.964z" transform="translate(160.211 25.842)"/><path style="fill:#000;fill-opacity:1;stroke:none;stroke-width:1;stroke-dasharray:none" d="M10.803 182.003c-11.965 4.285-25.27 1.85-36.86-2.457-5.886-3.091-10.741-4.132-13.812-8.56-1.351-2.948-6.893-5.61-5.027-.15 2.103 8.52 7.079 16.622 15.155 20.614 10.117 7.066 24.853 8.314 34.823.272 1.927-2.725 10.455-5.918 7.45-9.47-5.812-.17-7.832 7.927-13.748 9.555-12.473 7.343-30.494 2.488-37.045-10.582-3.426-3.868-1.494-12.64-6.625-13.972.894 3.982 6.132 6.027 9.376 8.438 10.301 6.033 21.825 10.314 33.886 10.457 5-.385 11.628 1.042 15.388-2.332-.984-.607-1.847-1.434-2.96-1.813zm-74.306-4.19c-2.023-.911 1.035.736-.435-.678-2.734-3.469-2.155-8.36-.92-12.307-1.49-3.078-5.137-.815-4.19 2.068-.6 3.966.22 8.763 3.994 10.922.86.59 3.569 2.197 3.62 1.477-.688-.497-1.405-.953-2.069-1.482zm6.62-3.165c.001-4.309 1.032-8.575 2.714-12.527-1.94-2.667-5.32-.333-4.805 2.492-.316 2.949-3.237 7.926.674 9.383.477.206.965.392 1.417.652zm78.173-8.675c5.419-.645 8.66 6.457 6.507 10.851-2.192 2.98 1.71 9.138 3.617 3.88.468-4.287.063-9.345-2.824-12.764-1.84-1.624-6.56-5.456-8.335-2.923.038.519.492.998 1.036.956z" transform="translate(160.211 25.842)"/><g transform="translate(160.211 25.842)"><path style="fill:#fff;fill-opacity:1;stroke:none;stroke-width:1;stroke-dasharray:none" d="M-44.23 106.35c5.286-.006 9.257 1.671 13.573 5.263 1.317 1.316 4.242 4.02 3.07 6.253-.46.876-1.733 1.294-2.502 1.665-.627.2-1.242.437-1.88.6-4.08 1.046-8.42 1.065-12.529.224-.84-.286-1.698-.527-2.522-.857a21.024 21.024 0 0 1-2.234-1.05c-2.276-1.24-4.64-2.51-6.78-4.046-.148.337-.115.254-.298.744l-3.441-1.916c.231-.58.107-.284.374-.892.611-1.16 1.342-1.784 2.415-2.558.82-.553 1.167-.834 2.098-1.253 2.29-1.033 4.81-1.494 7.263-1.926.773-.076 1.542-.196 2.317-.228.365-.015.723-.023 1.076-.024z"/><path style="fill:#000;fill-opacity:1;stroke:none;stroke-width:1;stroke-dasharray:none" d="M-57.971 112.875c2.587 2.268 5.729 3.944 8.717 5.572.723.394 1.47.745 2.234 1.051.824.33 1.682.571 2.522.857 4.108.841 8.45.822 12.53-.224.637-.163 1.253-.4 1.88-.6.768-.371 2.04-.789 2.5-1.665 1.173-2.233-1.752-4.938-3.07-6.253-4.603-3.831-8.814-5.484-14.647-5.24-.776.032-1.545.152-2.318.228-2.454.432-4.973.893-7.263 1.925-.931.42-1.278.701-2.098 1.254-1.073.774-1.804 1.398-2.415 2.558-.267.608-.143.311-.374.892l3.44 1.916c.21-.561.096-.277.347-.853.54-1.002 1.316-1.77 2.243-2.441 2.797-1.91 5.799-2.601 9.119-3.115 2.428-.216 4.765-.316 7.18.172.842.17 1.627.727 2.486.684.4-.02-1.259-.988-.929-.761.63.43 1.218.917 1.826 1.376 1.328 1.27 2.969 2.605 3.297 4.551.062.364.077.772-.082 1.105-.395.826-1.64 1.233-2.327 1.567-.615.192-1.22.416-1.845.575a25.994 25.994 0 0 1-12.344.116l-2.52-.904c-.742-.36-1.455-.788-2.227-1.08-.398-.151 1.43.914 1.097.65-1.066-.841-2.408-1.375-3.295-2.443z"/><ellipse style="fill:#000;fill-opacity:1;stroke:none;stroke-width:1;stroke-dasharray:none" cx="-43.263" cy="113.322" rx="7.784" ry="7.005"/></g><g transform="translate(160.211 25.842)"><path style="fill:#fff;fill-opacity:1;stroke:none;stroke-width:1;stroke-dasharray:none" d="M15.299 113.997c1.418 0 2.834.106 4.268.398 3.617.738 6.792 2.76 9.735 4.914 1.221 1.202 2.219 1.998 3.04 3.54.918 1.723 1.185 3.794-.65 5.072-.534.372-1.215.466-1.822.699-2.178.6-4.364 1.176-6.654.85-.761-.108-1.494-.366-2.23-.587-1.825-.547-3.704-1.265-5.488-1.916-4.323-1.699-8.645-3.405-12.927-5.202l-.14.171-.19.243-3.395-2.032.201-.24.382-.45-.367-.288.447.193c.569-.662 1.167-1.297 1.916-1.763 2.838-1.946 6.229-2.84 9.592-3.375 1.444-.124 2.864-.228 4.282-.227z"/><path style="fill:#000;fill-opacity:1;stroke:none;stroke-width:1;stroke-dasharray:none" d="M2.309 121.668c4.417 1.861 8.88 3.622 13.342 5.376 1.784.65 3.662 1.368 5.487 1.915.737.221 1.47.48 2.23.588 2.29.325 4.476-.25 6.654-.851.608-.233 1.289-.327 1.822-.699 1.836-1.278 1.569-3.349.65-5.072-.82-1.542-1.819-2.338-3.04-3.54-2.943-2.153-6.117-4.176-9.735-4.914-2.868-.585-5.663-.42-8.549-.17-3.363.535-6.754 1.429-9.592 3.374-.954.594-1.664 1.46-2.378 2.308l-.202.24 3.395 2.033.19-.243c.672-.832 1.36-1.66 2.26-2.256 2.732-1.926 5.99-2.865 9.268-3.357 2.961-.236 5.55-.377 8.49.295.852.194 1.63.787 2.503.78.428-.003-1.385-.995-1.008-.793.691.37 1.306.869 1.959 1.303 1.504 1.414 3.444 3.005 3.821 5.196.18 1.041-.254 2.131-1.131 2.734-.523.359-1.183.456-1.774.685-1.794.478-2.424.751-4.323.817-3.435.118-6.601-1.507-9.781-2.56-4.58-1.8-9.141-3.648-13.653-5.612z"/><ellipse style="fill:#000;fill-opacity:1;stroke:none;stroke-width:1;stroke-dasharray:none" cx="19.007" cy="121.366" rx="7.784" ry="7.005"/></g><path style="fill:#000;stroke:none;stroke-width:.132292" d="M-12.884 170.088c2.787-.116 7.875-6.718 12.712-7.737 4.836-1.02 10.746.552 14.645 1.934 3.9 1.382 7.046 2.756 8.567 5.25 1.52 2.495 1.253 5.1.552 7.461-.7 2.361-2.135 6.214-4.421 5.803-2.287-.41.863-4.325-1.934-6.355-2.798-2.03-10.128.407-14.093.276-3.965-.13-6.57.44-9.672-.829-3.102-1.27-9.129-4.92-8.014-6.632 1.115-1.711-1.129.945 1.658.829zm-30.673-1.105c-5.294 2.088-2.33 6.942-4.974 6.908-2.645-.034-3.718-3.4-4.145-6.08-.427-2.679-.663-5.711 2.487-8.566 3.15-2.854 11.686-3.663 16.304-3.04 4.617.624 7.424 3.165 10.224 4.975 2.8 1.81 5.919 3.294 6.632 5.526.714 2.233 3.007 2.505-1.382 5.25-4.388 2.747-19.852-7.062-25.146-4.973z" transform="translate(160.211 25.842)"/><path style="fill:#000;fill-opacity:1;stroke:none;stroke-width:.132292" d="M-78.456 181.515s-.002.288.001.713c1.634 5.139 1.947 6.98 3.328 10.32 1.074 2.596 2.306 5.146 3.834 7.503 3.6 5.55 11.055 15.454 11.055 15.454 8.08 9.001 17.416 17.557 27.377 22.659 14.334 6.502 25.375 3.45 36.86-4.098 8.642-5.708 15.438-15.579 22.682-23.013l1.836-8.915c-8.612 8.581-21.111 22.314-33.26 17.199-1.434-.634-2.988-1.795-3.326-3.327-.401-1.82 1.045-3.609 1.926-5.252 1.026-1.914 2.525-3.535 3.852-5.253.924-1.196 2.567-2.418 4.202-3.632.162-.961-.316-1.589-1.098-2.007-.27.296-.547.55-.828.736-3.02 2.01-6.267 3.92-9.804 4.728-5.178 1.183-10.685.815-15.933 0-2.663-.414-5.192-1.476-7.704-2.451-1.891-.734-4.091-1.15-5.984-1.954.083.07.161.14.223.21 3.625 4.106 10.04 6.776 11.053 12.16.547 2.9-.487 6.214-3.166 8.272-2.123 1.631-7.767 3.869-11.203 2.228-15.553-7.428-30.977-28.736-35.923-42.28z" transform="translate(160.211 25.842)"/><path style="fill:#fff;fill-opacity:1;stroke:none;stroke-width:1;stroke-dasharray:none" d="M-121.479 95.991a4.418 4.418 0 0 0-2.818 1.02c-4.97 4.026-5.345 11.13-4.352 16.979a15.093 15.093 0 0 0 3.354 8.555c2.413 3.191 5.403 6.865 4.318 11.16-.767 3.39-1.194 7.616 1.328 10.385 2.454 2.602 5.252-.47 6.179-2.866 3.119-5.866 2.434-12.548 2.317-18.97l-.999.023c-.01-.123-.021-.247-.013-.371.084-.508.194-1.01.318-1.51.09-.426.18-.853.268-1.28-.332-.156-.585-.319-.645-.438-.446-.892.585-1.915.726-2.902.137-.958-.16-1.948 0-2.902.145-.87.352-1.728.579-2.581a9.223 9.223 0 0 0-.246-1.115c-1.805-2.738-3.061-5.871-4.402-8.837-.848-2.4-3.403-4.365-5.912-4.35z" transform="translate(181.378 25.842)"/><path style="fill:#000;fill-opacity:1;stroke:none;stroke-width:1;stroke-dasharray:none" d="M-117.576 94.15c-5.326-3.043-12.308.702-14.24 6.16-3.327 7.82-1.887 17.393 3.398 24.013 3.964 5.162 2.17 11.845 2.811 17.801-.132 3.723 3.673 6.102 7.083 5.946 5.947.103 10.626-5.125 11.555-10.703.76-6.057.248-12.219-.377-18.272-.582-2.301-.398-5.55-2.382-7.017-1.68 2.095-1.055 5.335-1.351 7.948-.062 7.033 1.15 14.529-2.303 21.023-.926 2.396-3.724 5.468-6.179 2.866-2.521-2.77-2.095-6.994-1.328-10.385 1.086-4.295-1.905-7.97-4.317-11.16a15.094 15.094 0 0 1-3.354-8.556c-.994-5.849-.617-12.953 4.352-16.977 3.067-2.508 7.55-.01 8.73 3.329 1.864 4.124 3.56 8.577 6.804 11.832 3.115.074.515-5.346-.125-7.137-1.816-4.303-4.741-8.263-8.777-10.711z" transform="translate(181.378 25.842)"/><path style="fill:#000;fill-opacity:1;stroke:none;stroke-width:1;stroke-dasharray:none" d="M-85.292 104.363c-1.484-33.674 24.241-86.4 62.289-60.903C-6.345 59.724-3.321 54.834 7.084 45.522c15.581-13.945 37.184 13.273 45.714 29.827 5.445 9.648 7.154 20.537 8.442 31.213 8.687 14.494 8.086-14.324 6.063-20.188C62.14 53.091 38.434 23.2 6.585 11.742-19.867-2.102-59.75 3.052-77.782 26.964c-10.082 12.81-14.884 29.006-18.129 45.311-4.173 13.088 1.338 29.336 10.619 32.088z" transform="translate(160.211 25.842)"/><path style="fill:#000;fill-opacity:1;stroke:none;stroke-width:1;stroke-dasharray:none" d="M421.145 80.203c37.951.292 71.235 29.649 82.407 64.913 14.286 12.26 7.994 54.024-14.7 36.295-13.14-14.76-28.4-29.93-49.742-29.376-22.054-1.357-54.05 2.25-64.372 22.425-15.945 16.266-34.407 5.156-27.402-16.015 1.101-39.206 31.605-80.349 73.809-78.242z" transform="translate(-279.873 -56.835)"/><path style="fill:#ff8080;fill-opacity:1;stroke:none;stroke-width:1.10106;stroke-dasharray:none" d="M417.589 71.156c-28.25-.011-53.04 20.266-65.28 44.97-10.906 21.048-12.852 48.166-.555 68.921l1.193-.18a63.68 63.68 0 0 0 2.16.142c.29-.03.579-.066.867-.11-4.397-2.268-8.241-7.757-7.344-12.96 3.297-19.106 11.772-24.104 29.932-31.969 25.41-11.004 55.536-11.88 80.275-7.115 20.51 3.748 40.369 15.96 49.397 35.51-16.213-21.745-42.425-32.839-69.075-34.842-16.581-.884-30.618.46-46.349 5.807-12.578 4.275-29.535 8.688-36.38 21.023-4.081 8.133 1.146 16.766 7.321 22.182a29.302 29.302 0 0 1 2.95-.776c11.123-11.497 24.501-20.83 39.272-26.857 22.348-9.476 49.41-9.448 70.179 4.077 6.528 3.41 11.037 9 15.31 14.826 4.158 7.385 16.71 10.06 18.226-.756 3-13.368-.162-28.881-9.828-38.818-1.723-9.774-5.743-19.083-11.426-27.166-15.95-22.869-43.596-35.253-70.845-35.91z" transform="translate(-279.873 -56.835)"/><g><path style="fill:#f9f9f9;fill-opacity:1;stroke:none;stroke-width:1;stroke-dasharray:none" d="M62.833 121.973c1.252-.028 2.532.213 3.704.563 3.418.894 5.97 3.895 6.702 7.296 1.824 6.923-.505 14.041-3.21 20.397-.958 3.663-5.157 5.75-5.207 9.741.71 3.83-1.22 8.078-4.734 9.85-3.365 1.413-7.058.447-10.14-1.335-1.86-.2-.66.21.355.568-1.373.788-4.956.2-5.155-2.15 2.944-12.055 6.91-23.824 10.74-35.619 1.314-2.901 1.404-6.614 4.135-8.677.878-.425 1.836-.611 2.81-.634z" transform="translate(160.211 25.842)"/><path style="fill:#000;fill-opacity:1;stroke:none;stroke-width:1;stroke-dasharray:none" d="M47.514 166.537c3.605 2.836 9.044 4.965 13.255 2.252 3.134-2.019 3.912-6.028 3.824-9.669-.096-4.006 4.132-6.26 5.441-9.97 2.484-7.042 5.24-15 2.117-22.205-2.068-4.271-7.523-6.485-11.978-4.97-3.293 1.902-3.229 6.268-4.711 9.38-3.774 11.61-7.767 23.175-10.56 35.067-.597 2.54 4.89 3.767 4.175 1.565-.349-1.074 2.901 1.447 1.381-.505-2.173-2.791.57-6.6 1.303-9.755 2.51-10.802 6.71-21.118 10.254-31.613 1.692-.469 1.627-4.269 1.727-3.188 3.217 1.815 5.113 5.33 5.214 8.973.744 6.938-1.555 13.916-5.108 19.75-1.54 2.527-4.663 4.696-3.929 8.127.731 3.417-1.914 6.542-4.882 8.559-1.46.99 2.684.726.028-.274-2.453-.925-4.96-2.002-7.55-1.524z" transform="translate(160.211 25.842)"/></g></svg>