<svg width="800mm" height="390mm" viewBox="0 0 800 390" xml:space="preserve" xmlns="http://www.w3.org/2000/svg"><path d="m353.342 204.256-3.554 4.132-3.556 4.134v88.449l4.307 4.304 4.304 4.307H445.156l4.305-4.307 4.307-4.304v-89.574l-3.801-3.57-3.8-3.57h-46.415zm9.094 15.468h75.128V294.85H400.98c-20.12 0-37.024-.443-37.564-.984-.54-.54-.98-17.443-.98-37.563zm22.062 11.333c-2.436-.01-4.707.047-6.226.172-5.224.433-5.524.733-5.524 5.524 0 4.386.483 5.067 3.585 5.067 3.22 0 10.608 7.236 14.725 14.423 1.482 2.588-11.77 17.985-15.48 17.985-2.254 0-2.83 1.051-2.83 5.156v5.156h22.479l-.74-6.572c-.594-5.27-.168-7.087 2.158-9.192 2.798-2.532 3.003-2.497 5.875 1.044 2.605 3.21 2.682 3.73.599 4.146-1.637.328-2.383 2.054-2.383 5.524v5.05h26.516v-5.156c0-3.45-.685-5.156-2.071-5.156-1.752 0-7.427-6.074-15.284-16.362-2.719-3.56 7.626-16.033 13.304-16.04 3.647-.005 4.051-.52 4.051-5.162v-5.155h-23.704l.327 6.346c.401 7.74-1.03 10.746-3.959 8.315-1.43-1.187-1.774-3.561-1.162-8.027l.869-6.341-7.912-.515a124.39 124.39 0 0 0-7.213-.23z" style="fill:#bdc3c7;fill-opacity:1;stroke-width:2.57938"/><path style="fill:#e67e22;fill-opacity:1;stroke-width:1.47309" d="m599.592 80.458-2.817 3.476c-2.637 3.255-2.817 6.373-2.817 48.85v45.373l4.532 3.812 4.534 3.815h43.75c38.68 0 44.174-.291 47.394-2.495 2.004-1.37 4.13-3.193 4.725-4.05.595-.858 1.093-22.17 1.104-47.364.024-44.71-.051-45.873-3.078-48.612-2.913-2.636-5.95-2.805-50.214-2.805zm10.57 15.468h75.128v73.654h-75.128v-36.827z"/><path style="fill:#e67e22;fill-opacity:1;stroke-width:1.84136" d="M637.783 159.538c-3.368-.388-4.051-1.178-4.051-4.685 0-3.254.758-4.327 3.314-4.69 2.805-.398 3.375-1.49 3.709-7.1.355-5.972-.356-7.62-7.18-16.66-4.75-6.29-8.33-9.74-9.601-9.252-1.496.574-2.028-.657-2.03-4.7l-.003-5.478 11.935.485 11.936.485-.676 5.407c-.585 4.68 2.07 13.51 4.063 13.51.364 0 1.76-2.126 3.103-4.723 1.684-3.257 1.925-4.895.774-5.279-2.056-.685-2.234-9.108-.194-9.254.81-.058 4.456-.105 8.102-.105 12.756 0 12.521-.08 12.521 4.28 0 2.754-1.038 4.54-3.208 5.524-1.765.8-5.725 5.1-8.802 9.557-4.712 6.826-5.598 9.32-5.63 15.835-.028 5.91.484 7.734 2.173 7.734 1.458 0 2.21 1.46 2.21 4.294 0 4.232-.133 4.3-9.208 4.787-5.063.272-11.03.284-13.257.028z"/><path style="fill:#3498db;fill-opacity:1;stroke-width:1.47309" d="m230.257 80.826-3.614 3.614-3.616 3.617v44.796c0 43.09.116 44.948 3.052 48.681l3.053 3.882H323.338l3.61-3.899 3.614-3.898v-43.172c0-45.71-.444-49.062-6.862-51.986-2.38-1.085-18.725-1.635-48.514-1.635zm8.974 16.204H314.358v73.655H239.231v-36.827z"/><path style="fill:#3498db;fill-opacity:1;stroke-width:1.47309" d="M251.015 107.112v5.27c0 4.289.55 5.272 2.946 5.272 2.768 0 2.947.982 2.947 16.204 0 15.221-.179 16.203-2.947 16.203-2.385 0-2.946.983-2.946 5.156v5.156h26.516v-4.557c0-3.319-.801-4.768-2.946-5.329-2.381-.622-2.946-2.009-2.946-7.227 0-9.842 3.304-8.164 10.492 5.328l6.278 11.785h15.637v-5.156c0-4.352-.516-5.162-3.314-5.196-2.446-.03-4.218-1.827-6.761-6.865-3.069-6.077-3.19-6.97-1.105-8.136 3.16-1.768 6.761-9.006 6.761-13.589 0-2.053-1.933-5.896-4.295-8.542l-4.293-4.81-20.013-.484zm22.937 10.657c.75-.027 1.745.052 3.061.164 6.37.542 9.442 4.17 6.514 7.699-1.068 1.286-4.171 2.333-6.914 2.333-4.72 0-4.974-.27-4.974-5.245 0-3.852.06-4.872 2.313-4.951z"/><path d="M277.373 204.648c-24.847-.025-46.25.366-47.562.87-6.069 2.328-6.695 7.244-6.695 52.579 0 41.606.121 43.486 3.053 47.213l3.052 3.882H323.421l3.614-3.617 3.617-3.617v-43.62c0-44.39-.37-47.705-5.766-51.848-1.717-1.319-14.324-1.807-47.513-1.842zm-38.053 16.158h75.128v73.655H239.32v-36.828zm22.096 10.312v5.156c0 4.517.456 5.156 3.683 5.156h3.683v32.407h-3.683c-3.227 0-3.683.639-3.683 5.156v5.156H289.405v-5.156c0-4.174-.561-5.156-2.946-5.156-2.768 0-2.946-.982-2.946-16.204 0-15.221.178-16.203 2.946-16.203 2.385 0 2.946-.983 2.946-5.156v-5.156h-13.994z" style="fill:#8e44ad;fill-opacity:1;stroke-width:2.57938"/><path d="m199.77 204.625-45.833.046c-49.352.05-49.422.061-52.403 7.903-.927 2.438-1.534 20.301-1.534 45.275 0 40.582.355 44.074 4.989 49.374 1.264 1.446 12.418 1.893 48.48 1.936l46.836.055 3.617-3.617 3.613-3.613v-89.591l-3.88-3.884-3.885-3.884zm-83.566 16.204H191.331v73.654H116.204v-36.827zm4.422 10.193v5.168c0 3.99.504 4.976 2.21 4.321 1.886-.724 2.21 1.657 2.21 16.25 0 14.216-.373 17.099-2.21 17.099-3.186 0-2.99 8.468.21 9.097 1.331.262 5.53.255 9.33-.015 6.537-.467 6.908-.725 6.908-4.788 0-3.181-.7-4.295-2.701-4.295-2.458 0-2.7-1.48-2.7-16.449 0-9.047.348-16.098.775-15.671.427.427 3.63 9.32 7.118 19.763 5.777 17.299 6.678 19.027 10.113 19.437 3.426.41 4.108-.463 7.486-9.575 2.045-5.514 4.54-12.678 5.547-15.919 4.989-16.064 5.67-15.846 5.731 1.842.054 15.496-.131 16.572-2.83 16.572-2.294 0-2.824.907-2.578 4.416l.31 4.417 10.68.005 10.68.003v-4.42c0-2.43-.663-4.419-1.473-4.419-.897 0-1.473-6.629-1.473-16.94 0-12.767.454-16.85 1.841-16.573 1.106.222 2.028-1.565 2.308-4.476l.463-4.848-12.823.428-12.827.426-3.844 12.147c-2.114 6.682-4.256 12.15-4.758 12.153-.503.002-2.896-5.463-5.32-12.147l-4.41-12.153-11.987-.429-11.986-.425z" style="fill:#34495e;fill-opacity:1;stroke-width:2.57938"/><path style="fill:#e74c3c;fill-opacity:1;stroke-width:1.47309" d="M154.326 80.09c-44.998 0-48.29.36-52.439 5.763-1.318 1.717-1.807 14.336-1.841 47.567L100 178.652l3.749 3.748 3.752 3.752h91.032l4.132-3.556 4.134-3.556V87.199l-4.134-3.556-4.132-3.553h-44.207zm-38.122 16.204h75.18l-.395 37.195-.394 37.196-36.482.097c-20.065.055-36.803-.22-37.196-.612-.392-.393-.713-17.177-.713-37.297z"/><path style="fill:#e74c3c;fill-opacity:1;stroke-width:1.47309" d="M136.827 106.605v5.156c0 4.041.593 5.156 2.736 5.156 2.545 0 2.41 1.103-1.936 15.836-3.953 13.402-5.167 15.906-7.892 16.304-2.594.38-3.22 1.453-3.22 5.524v5.056h22.097v-5.156c0-3.754-.645-5.156-2.368-5.156-1.553 0-2.06-.801-1.473-2.33.492-1.282.895-2.94.895-3.683 0-.744 2.983-1.352 6.629-1.352 3.645 0 6.628.608 6.628 1.352 0 .744.403 2.4.895 3.682.587 1.53.08 2.331-1.473 2.331-1.723 0-2.368 1.402-2.368 5.156v5.156h21.762l.677-4.618c.5-3.406.052-4.78-1.715-5.242-1.574-.412-4.022-5.813-7.14-15.764-5.489-17.509-5.428-17.096-2.536-17.096 1.544 0 2.21-1.555 2.21-5.156v-5.156h-16.204zm15.39 14.544 1.77 4.88c.972 2.684 1.816 5.38 1.878 5.987.062.608-1.453 1.105-3.366 1.105-3.347 0-3.416-.227-1.879-5.987z"/><path d="M537.001 203.93c-5.424.01-11.288.044-17.332.103l-43.957.435-2.813 3.475c-2.634 3.255-2.814 6.383-2.814 48.768v45.286l3.668 3.959 3.668 3.956 46.55-.43 46.549-.425 2.813-3.478c2.635-3.256 2.814-6.384 2.814-48.98 0-43.344-.138-45.64-2.909-48.411-1.6-1.6-4.417-3.287-6.26-3.749-1.383-.346-13.704-.537-29.977-.51zm-50.712 16.005H561.416v74.958l-36.651.016c-20.16.008-37.063-.397-37.564-.898-.501-.501-.912-17.375-.912-37.495v-36.58zm58.73 10.709a2.824 2.824 0 0 0-.664.181c-1.282.492-11.447.895-22.588.895h-20.255v4.42c0 3.302.68 4.418 2.698 4.418 2.454 0 2.702 1.468 2.702 16.032 0 14.637-.25 16.099-2.863 16.782-2.516.658-3.13 4.194-1.657 9.538.056.202 10.044.368 22.197.368h22.096v-7.365c0-4.051.166-7.863.369-8.47.202-.608-2.118-1.245-5.156-1.413-4.968-.276-5.524.058-5.524 3.314 0 3.407-.48 3.622-8.102 3.622h-8.102v-11.784h6.629c6.594 0 6.629-.028 6.629-5.156 0-5.129-.036-5.156-6.63-5.156-6.593 0-6.628-.027-6.628-5.156v-5.156h8.165c5.679 0 8.096.561 7.93 1.842-.59 4.546.34 5.524 5.265 5.524h5.155v-8.997c0-6.648-.278-8.444-1.665-8.283z" style="fill:#27ae60;fill-opacity:1;stroke-width:2.57938"/><path d="m353.652 80.826-3.614 3.614-3.617 3.617v44.796c0 43.09.117 44.948 3.053 48.681l3.053 3.882h94.205l3.611-3.899 3.614-3.898v-43.172c0-45.71-.444-49.062-6.862-51.986-2.38-1.085-18.726-1.635-48.514-1.635zm8.973 16.204h75.128v73.655h-75.128v-36.827z" style="fill:#3498db;fill-opacity:1;stroke-width:1.47309"/><path d="M374.41 107.112v5.27c0 4.289.55 5.272 2.946 5.272 2.768 0 2.947.982 2.947 16.204 0 15.221-.179 16.203-2.947 16.203-2.385 0-2.946.983-2.946 5.156v5.156h26.516v-4.557c0-3.319-.801-4.768-2.946-5.329-2.381-.622-2.947-2.009-2.947-7.227 0-9.842 3.304-8.164 10.493 5.328l6.278 11.785h15.637v-5.156c0-4.352-.516-5.162-3.314-5.196-2.447-.03-4.218-1.827-6.761-6.865-3.069-6.077-3.19-6.97-1.105-8.136 3.16-1.768 6.761-9.006 6.761-13.589 0-2.053-1.933-5.896-4.295-8.542l-4.293-4.81-20.013-.484zm22.937 10.657c.75-.027 1.745.052 3.06.164 6.371.542 9.443 4.17 6.515 7.699-1.068 1.286-4.172 2.333-6.914 2.333-4.72 0-4.975-.27-4.975-5.245 0-3.852.062-4.872 2.314-4.951z" style="fill:#3498db;fill-opacity:1;stroke-width:1.47309"/><path d="M524.511 80.088c-44.998 0-48.29.36-52.438 5.764-1.318 1.717-1.807 14.338-1.842 47.57l-.048 45.231 3.752 3.748 3.752 3.753h91.033l4.13-3.56 4.136-3.554V87.198l-4.135-3.555-4.131-3.555H524.51zM486.39 96.294h75.18l-.394 37.196-.395 37.195-36.482.097c-20.066.055-36.804-.22-37.196-.613-.392-.392-.713-17.176-.713-37.296V96.294zm20.623 10.31v5.158c0 4.041.593 5.155 2.736 5.155 2.545 0 2.407 1.103-1.938 15.835-3.953 13.402-5.167 15.908-7.892 16.307-2.594.379-3.216 1.45-3.216 5.521v5.058h22.094v-5.159c0-3.753-.642-5.154-2.366-5.154-1.553 0-2.061-.8-1.475-2.33.492-1.281.895-2.94.895-3.683 0-.744 2.984-1.35 6.63-1.35s6.63.606 6.63 1.35c0 .744.403 2.402.894 3.683.587 1.53.079 2.33-1.475 2.33-1.723 0-2.365 1.401-2.365 5.154v5.16h21.759l.677-4.62c.5-3.406.054-4.78-1.713-5.243-1.574-.412-4.022-5.811-7.141-15.762-5.488-17.509-5.427-17.097-2.535-17.097 1.543 0 2.208-1.554 2.208-5.155v-5.158h-16.202zm15.391 14.545 1.77 4.88c.972 2.685 1.816 5.378 1.878 5.986.061.607-1.453 1.108-3.366 1.108-3.346 0-3.42-.229-1.882-5.989z" style="fill:#e74c3c;fill-opacity:1;stroke-width:2.06351"/><path d="m599.695 204.625-3.614 3.613-3.617 3.617v44.797c0 43.09.116 44.947 3.053 48.68l3.053 3.882h94.205l3.611-3.899 3.614-3.898v-43.171c0-45.71-.444-49.063-6.862-51.987-2.38-1.085-18.726-1.634-48.514-1.634zm8.973 16.204h75.128v73.654h-75.128v-36.827z" style="fill:#3498db;fill-opacity:1;stroke-width:1.47309"/><path d="M620.453 230.91v5.271c0 4.288.55 5.27 2.946 5.27 2.768 0 2.946.983 2.946 16.205 0 15.222-.178 16.204-2.946 16.204-2.385 0-2.946.982-2.946 5.156v5.155h26.516v-4.557c0-3.318-.801-4.767-2.947-5.328-2.38-.623-2.946-2.01-2.946-7.228 0-9.841 3.304-8.163 10.493 5.329l6.278 11.784h15.637v-5.155c0-4.353-.516-5.162-3.314-5.196-2.447-.03-4.218-1.828-6.761-6.865-3.069-6.078-3.19-6.97-1.105-8.137 3.16-1.768 6.76-9.005 6.76-13.588 0-2.053-1.932-5.897-4.295-8.543l-4.292-4.81-20.014-.484zm22.936 10.657c.751-.027 1.746.052 3.062.164 6.37.542 9.442 4.171 6.514 7.7-1.068 1.285-4.172 2.333-6.914 2.333-4.72 0-4.975-.27-4.975-5.245 0-3.853.062-4.872 2.313-4.952z" style="fill:#3498db;fill-opacity:1;stroke-width:1.47309"/></svg>