<svg width="350mm" height="192mm" viewBox="0 0 350 192" xml:space="preserve" xmlns="http://www.w3.org/2000/svg"><path d="m223.683 221.935-1.378-1.602-1.378-1.603v-34.29l1.67-1.67 1.668-1.669h35.014l1.668 1.67 1.67 1.669v34.726l-1.473 1.385-1.474 1.384h-17.994zm3.526-5.997h29.126v-29.126h-14.183c-7.8 0-14.353.172-14.563.382-.21.209-.38 6.762-.38 14.563zm8.553-4.393a30.723 30.723 0 0 1-2.414-.067c-2.025-.168-2.141-.284-2.141-2.142 0-1.7.187-1.964 1.39-1.964 1.248 0 4.112-2.805 5.708-5.592.575-1.003-4.563-6.972-6-6.972-.875 0-1.098-.408-1.098-2v-1.998H239.92l-.286 2.547c-.23 2.044-.065 2.748.836 3.564 1.085.982 1.164.968 2.278-.405 1.01-1.244 1.04-1.445.232-1.607-.635-.127-.924-.796-.924-2.142v-1.957h10.28v1.999c0 1.337-.265 1.999-.803 1.999-.679 0-2.88 2.355-5.925 6.343-1.054 1.38 2.957 6.216 5.158 6.219 1.414.002 1.57.201 1.57 2v2h-9.19l.127-2.461c.156-3-.4-4.166-1.534-3.224-.555.46-.688 1.381-.451 3.112l.337 2.459-3.068.2c-.843.054-1.852.085-2.796.089z" style="fill:#bdc3c7;fill-opacity:1" transform="matrix(1.20371 0 0 -1.20371 -116.024 367.465)"/><path style="fill:#e67e22;fill-opacity:1;stroke-width:.571101" d="m319.152 269.93-1.092-1.347c-1.023-1.263-1.092-2.471-1.092-18.94v-17.59l1.756-1.478 1.758-1.479h16.961c14.996 0 17.127.113 18.375.967.777.532 1.6 1.239 1.832 1.571.23.332.424 8.595.428 18.362.009 17.334-.02 17.785-1.194 18.847-1.13 1.022-2.307 1.087-19.467 1.087zm4.098-5.996h29.126v-28.555H323.25v14.277z" transform="matrix(1.20371 0 0 -1.20371 -116.024 367.465)"/><path style="fill:#e67e22;fill-opacity:1;stroke-width:.713876" d="M333.958 239.272c-1.306.15-1.57.456-1.57 1.816 0 1.261.293 1.677 1.284 1.818 1.087.155 1.309.578 1.438 2.753.138 2.315-.138 2.954-2.784 6.458-1.841 2.44-3.229 3.777-3.722 3.588-.58-.223-.786.254-.787 1.822v2.124l4.626-.188 4.628-.189-.262-2.096c-.227-1.814.802-5.237 1.575-5.237.14 0 .682.824 1.203 1.83.653 1.263.746 1.898.3 2.047-.797.266-.866 3.531-.075 3.588.314.022 1.727.04 3.14.04 4.946 0 4.855.032 4.855-1.659 0-1.067-.402-1.76-1.244-2.141-.684-.31-2.22-1.978-3.412-3.705-1.827-2.647-2.17-3.613-2.183-6.14-.01-2.29.188-2.998.843-2.998.565 0 .856-.566.856-1.664 0-1.641-.051-1.668-3.57-1.857-1.962-.105-4.275-.11-5.14-.01z" transform="matrix(1.20371 0 0 -1.20371 -116.024 367.465)"/><path style="fill:#3498db;fill-opacity:1;stroke-width:.571101" d="m175.964 269.787-1.4-1.4-1.403-1.403v-17.367c0-16.705.045-17.426 1.184-18.873l1.183-1.505H212.05l1.4 1.512 1.402 1.511v16.737c0 17.721-.172 19.021-2.66 20.155-.923.42-7.26.633-18.81.633zm3.48-6.282H208.57V234.95H179.443v14.278z" transform="matrix(1.20371 0 0 -1.20371 -116.024 367.465)"/><path style="fill:#3498db;fill-opacity:1;stroke-width:.571101" d="M184.012 259.597v-2.044c0-1.662.213-2.043 1.142-2.043 1.073 0 1.143-.38 1.143-6.282s-.07-6.282-1.143-6.282c-.924 0-1.142-.381-1.142-2v-1.998h10.28v1.767c0 1.286-.31 1.848-1.142 2.066-.923.24-1.142.778-1.142 2.801 0 3.816 1.28 3.165 4.068-2.065l2.433-4.57H204.571v2c0 1.687-.2 2.001-1.284 2.014-.949.012-1.635.709-2.621 2.662-1.19 2.356-1.237 2.702-.429 3.154 1.225.686 2.622 3.491 2.622 5.268 0 .796-.75 2.286-1.666 3.312l-1.664 1.865-7.759.187zm8.892-4.132c.291.01.677-.02 1.187-.063 2.47-.21 3.66-1.617 2.526-2.985-.414-.499-1.618-.905-2.68-.905-1.83 0-1.93.105-1.93 2.034 0 1.493.024 1.888.897 1.92z" transform="matrix(1.20371 0 0 -1.20371 -116.024 367.465)"/><path d="M194.23 221.783c-9.632.01-17.93-.142-18.438-.337-2.353-.903-2.596-2.809-2.596-20.384 0-16.13.047-16.86 1.183-18.305l1.184-1.504h36.52l1.401 1.402 1.402 1.402v16.91c0 17.21-.143 18.496-2.235 20.102-.666.511-5.553.7-18.42.714zm-14.752-6.264h29.126v-28.555h-29.126v14.277zm8.567-3.998v-1.999c0-1.751.176-1.999 1.427-1.999h1.428V194.96h-1.428c-1.25 0-1.427-.247-1.427-1.999v-1.999h10.85v2c0 1.617-.217 1.998-1.142 1.998-1.073 0-1.142.38-1.142 6.282 0 5.901.07 6.282 1.142 6.282.925 0 1.142.381 1.142 2v1.998h-5.425z" style="fill:#8e44ad;fill-opacity:1" transform="matrix(1.20371 0 0 -1.20371 -116.024 367.465)"/><path d="m164.145 221.792-17.769-.018c-19.133-.02-19.16-.024-20.316-3.064-.36-.945-.595-7.87-.595-17.552 0-15.734.138-17.087 1.934-19.142.49-.56 4.815-.734 18.795-.75l18.158-.022 1.403 1.402 1.4 1.401V218.78l-1.504 1.506-1.506 1.506zm-32.398-6.282h29.126v-28.555h-29.126v14.277zm1.715-3.952v-2.003c0-1.547.195-1.93.856-1.676.731.28.857-.642.857-6.3 0-5.511-.144-6.629-.857-6.629-1.235 0-1.159-3.283.082-3.527.516-.101 2.144-.098 3.617.006 2.534.181 2.678.281 2.678 1.856 0 1.234-.271 1.666-1.047 1.666-.953 0-1.046.573-1.046 6.377 0 3.507.134 6.24.3 6.075.165-.165 1.407-3.613 2.76-7.662 2.24-6.706 2.588-7.376 3.92-7.535 1.328-.16 1.593.18 2.902 3.712.793 2.138 1.76 4.915 2.15 6.171 1.935 6.228 2.199 6.144 2.223-.713.02-6.008-.051-6.425-1.098-6.425-.89 0-1.094-.352-1-1.712l.121-1.713 4.14-.002h4.141v1.713c0 .942-.257 1.713-.57 1.713-.349 0-.572 2.57-.572 6.568 0 4.95.176 6.532.714 6.424.429-.085.786.607.894 1.736l.18 1.88-4.971-.167-4.973-.165-1.49-4.71c-.82-2.59-1.65-4.71-1.845-4.71-.195-.001-1.123 2.117-2.063 4.709l-1.71 4.711-4.646.166-4.647.166z" style="fill:#34495e;fill-opacity:1" transform="matrix(1.20371 0 0 -1.20371 -116.024 367.465)"/><path style="fill:#e74c3c;fill-opacity:1;stroke-width:.571101" d="M146.527 270.073c-17.446 0-18.722-.14-20.33-2.234-.511-.666-.7-5.558-.714-18.442l-.018-17.535 1.454-1.454 1.454-1.454h35.292l1.602 1.378 1.603 1.379V267.317l-1.603 1.378-1.602 1.378h-17.138zm-14.78-6.282h29.146l-.152-14.42-.153-14.42-14.144-.039c-7.779-.02-14.268.086-14.42.238-.152.152-.277 6.659-.277 14.46z" transform="matrix(1.20371 0 0 -1.20371 -116.024 367.465)"/><path style="fill:#e74c3c;fill-opacity:1;stroke-width:.571101" d="M139.743 259.793v-1.999c0-1.566.23-1.999 1.06-1.999.987 0 .934-.427-.75-6.139-1.533-5.196-2.003-6.167-3.06-6.321-1.006-.147-1.248-.563-1.248-2.142v-1.96h8.566v2c0 1.454-.25 1.998-.918 1.998-.602 0-.798.31-.57.904.19.497.346 1.139.346 1.427 0 .289 1.157.525 2.57.525 1.414 0 2.57-.236 2.57-.525 0-.288.156-.93.347-1.427.228-.593.031-.904-.571-.904-.668 0-.918-.544-.918-1.999v-1.999H155.604l.262 1.79c.194 1.321.02 1.854-.665 2.033-.61.16-1.559 2.254-2.768 6.111-2.128 6.788-2.104 6.628-.983 6.628.599 0 .857.603.857 2v1.998h-6.282zm5.966-5.638.686-1.892c.377-1.041.705-2.086.728-2.321.024-.236-.563-.429-1.305-.429-1.297 0-1.324.088-.728 2.321z" transform="matrix(1.20371 0 0 -1.20371 -116.024 367.465)"/><path d="M294.886 222.061a851.329 851.329 0 0 1-6.72-.04l-17.041-.168-1.091-1.348c-1.021-1.261-1.09-2.474-1.09-18.906v-17.557l1.421-1.535 1.422-1.534 18.047.167 18.047.165 1.09 1.348c1.022 1.262 1.091 2.475 1.091 18.99 0 16.803-.053 17.693-1.127 18.768-.62.62-1.713 1.274-2.428 1.453-.536.134-5.312.208-11.621.197zm-19.66-6.205h29.125v-29.06l-14.21-.006c-7.815-.003-14.368.154-14.562.348-.194.194-.354 6.736-.354 14.536v14.182zm22.769-4.151a1.095 1.095 0 0 1-.258-.07c-.497-.191-4.438-.348-8.757-.348h-7.853v-1.713c0-1.28.264-1.713 1.046-1.713.951 0 1.048-.569 1.048-6.215 0-5.675-.097-6.242-1.11-6.507-.976-.255-1.214-1.626-.643-3.697.022-.079 3.894-.143 8.606-.143h8.566v2.855c0 1.571.065 3.049.143 3.284.079.236-.82.483-1.999.548-1.926.107-2.141-.023-2.141-1.285 0-1.32-.186-1.404-3.141-1.404h-3.141v4.568h2.57c2.556 0 2.57.011 2.57 2 0 1.988-.014 1.998-2.57 1.998-2.557 0-2.57.01-2.57 1.999v1.999h3.165c2.202 0 3.139-.218 3.074-.714-.229-1.762.133-2.142 2.042-2.142h1.998v3.488c0 2.578-.107 3.274-.645 3.212z" style="fill:#27ae60;fill-opacity:1" transform="matrix(1.20371 0 0 -1.20371 -116.024 367.465)"/><path d="m223.803 269.787-1.4-1.4-1.403-1.403v-17.367c0-16.705.045-17.426 1.184-18.873l1.183-1.505H259.89l1.4 1.512 1.402 1.511v16.737c0 17.721-.172 19.021-2.66 20.155-.924.42-7.26.633-18.81.633zm3.48-6.282h29.125V234.95h-29.126v14.278z" style="fill:#3498db;fill-opacity:1;stroke-width:.571101" transform="matrix(1.20371 0 0 -1.20371 -116.024 367.465)"/><path d="M231.851 259.597v-2.044c0-1.662.213-2.043 1.142-2.043 1.073 0 1.142-.38 1.142-6.282s-.069-6.282-1.142-6.282c-.924 0-1.142-.381-1.142-2v-1.998h10.28v1.767c0 1.286-.31 1.848-1.142 2.066-.923.24-1.143.778-1.143 2.801 0 3.816 1.281 3.165 4.068-2.065l2.434-4.57H252.41v2c0 1.687-.2 2.001-1.284 2.014-.949.012-1.636.709-2.622 2.662-1.19 2.356-1.236 2.702-.428 3.154 1.225.686 2.621 3.491 2.621 5.268 0 .796-.75 2.286-1.665 3.312l-1.664 1.865-7.76.187zm8.892-4.132c.291.01.677-.02 1.187-.063 2.47-.21 3.66-1.617 2.525-2.985-.413-.499-1.617-.905-2.68-.905-1.83 0-1.929.105-1.929 2.034 0 1.493.024 1.888.897 1.92z" style="fill:#3498db;fill-opacity:1;stroke-width:.571101" transform="matrix(1.20371 0 0 -1.20371 -116.024 367.465)"/><path d="M290.044 270.073c-17.446 0-18.722-.14-20.33-2.234-.511-.666-.7-5.559-.714-18.442l-.019-17.536 1.455-1.453 1.455-1.455h35.292l1.601 1.38 1.603 1.378V267.317l-1.603 1.378-1.601 1.378h-17.14zm-14.78-6.282h29.147l-.153-14.42-.153-14.421-14.144-.038c-7.78-.02-14.268.086-14.42.238-.153.152-.277 6.66-.277 14.46v14.18zm7.995-3.997v-2c0-1.567.23-1.999 1.061-1.999.987 0 .933-.427-.751-6.139-1.533-5.196-2.003-6.167-3.06-6.322-1.005-.147-1.247-.562-1.247-2.14v-1.961h8.566v2c0 1.455-.249 1.998-.917 1.998-.602 0-.8.31-.572.903.19.497.347 1.14.347 1.428 0 .289 1.157.524 2.57.524 1.414 0 2.57-.235 2.57-.524 0-.288.157-.93.347-1.428.228-.592.03-.903-.572-.903-.668 0-.917-.543-.917-1.998v-2h8.437l.262 1.79c.194 1.321.02 1.854-.664 2.033-.61.16-1.56 2.253-2.77 6.111-2.127 6.788-2.103 6.628-.982 6.628.598 0 .856.603.856 1.999v2h-6.28zm5.967-5.64.686-1.892c.377-1.04.705-2.084.729-2.32.023-.235-.564-.43-1.305-.43-1.298 0-1.326.09-.73 2.322z" style="fill:#e74c3c;fill-opacity:1;stroke-width:.8" transform="matrix(1.20371 0 0 -1.20371 -116.024 367.465)"/><path d="m319.191 221.792-1.4-1.4-1.403-1.403v-17.367c0-16.706.045-17.426 1.184-18.873l1.183-1.505H355.277l1.4 1.511 1.402 1.512v16.737c0 17.721-.172 19.02-2.66 20.154-.923.42-7.26.634-18.809.634zm3.48-6.282h29.126v-28.555H322.67v14.277z" style="fill:#3498db;fill-opacity:1;stroke-width:.571101" transform="matrix(1.20371 0 0 -1.20371 -116.024 367.465)"/><path d="M327.24 211.601v-2.043c0-1.662.212-2.043 1.141-2.043 1.073 0 1.143-.381 1.143-6.283 0-5.901-.07-6.282-1.143-6.282-.924 0-1.142-.38-1.142-1.999v-1.998h10.28v1.766c0 1.287-.31 1.849-1.142 2.066-.923.242-1.142.78-1.142 2.802 0 3.816 1.28 3.165 4.068-2.066l2.434-4.568h6.061v1.998c0 1.688-.2 2.002-1.284 2.015-.949.012-1.635.708-2.621 2.661-1.19 2.356-1.237 2.702-.429 3.155 1.225.685 2.622 3.491 2.622 5.268 0 .796-.75 2.286-1.666 3.312l-1.664 1.865-7.759.187zm8.892-4.131c.29.01.676-.02 1.186-.064 2.47-.21 3.66-1.617 2.526-2.985-.414-.498-1.617-.904-2.68-.904-1.83 0-1.93.104-1.93 2.033 0 1.494.024 1.889.898 1.92z" style="fill:#3498db;fill-opacity:1;stroke-width:.571101" transform="matrix(1.20371 0 0 -1.20371 -116.024 367.465)"/></svg>