<svg width="350mm" height="192mm" viewBox="0 0 350 192" xml:space="preserve" xmlns="http://www.w3.org/2000/svg"><g transform="matrix(1.42112 0 0 1.42112 -550.674 -305.587)"><path style="fill:#494368;fill-opacity:1;stroke-width:.264583" d="M574.625 239.768c-1.032 0-1.931.37-2.672 1.11-.741.742-1.111 1.615-1.111 2.673v9.34c0 1.032.37 1.931 1.11 2.672.742.741 1.615 1.111 2.673 1.111h13.415v-3.148h-13.415a.58.58 0 0 1-.45-.185.58.58 0 0 1-.185-.45v-3.096h14.05v-6.244c0-1.032-.371-1.931-1.112-2.672-.74-.741-1.614-1.111-2.672-1.111zm0 3.148h9.63c.186 0 .319.053.45.185a.58.58 0 0 1 .186.45v3.096h-10.9v-3.096a.58.58 0 0 1 .184-.45.58.58 0 0 1 .45-.185zM564.015 239.768c1.059 0 1.932.37 2.673 1.11.74.742 1.11 1.641 1.11 2.673v13.123h-3.121v-13.123a.58.58 0 0 0-.185-.45.638.638 0 0 0-.477-.185h-6.667a.58.58 0 0 0-.45.185.58.58 0 0 0-.185.45v13.123h-3.149v-13.123a.58.58 0 0 0-.185-.45.58.58 0 0 0-.45-.185h-6.694a.58.58 0 0 0-.45.185.58.58 0 0 0-.185.45v13.123h-3.148v-16.906zM525.942 239.768c-1.032 0-1.932.37-2.673 1.11-.74.742-1.11 1.615-1.11 2.673v9.34c0 1.032.37 1.931 1.11 2.672.741.741 1.614 1.111 2.673 1.111h9.63c1.032 0 1.932-.37 2.673-1.11.74-.742 1.111-1.615 1.111-2.673v-9.34c0-1.032-.37-1.931-1.111-2.672-.741-.741-1.614-1.111-2.673-1.111zm0 3.148h9.63c.186 0 .318.08.45.185a.58.58 0 0 1 .186.45v9.34a.58.58 0 0 1-.185.45.581.581 0 0 1-.45.185h-9.631a.58.58 0 0 1-.45-.185.58.58 0 0 1-.185-.45v-9.34a.58.58 0 0 1 .185-.45.58.58 0 0 1 .45-.185zM519.274 243.578v.635h-3.148v-.635a.58.58 0 0 0-.186-.45.58.58 0 0 0-.45-.185h-9.63a.58.58 0 0 0-.45.185.58.58 0 0 0-.185.45v2.46a.58.58 0 0 0 .185.45.58.58 0 0 0 .45.185h9.63c1.059 0 1.932.37 2.673 1.111.74.741 1.111 1.64 1.111 2.673v2.46c0 1.059-.37 1.932-1.111 2.673a3.658 3.658 0 0 1-2.672 1.11h-9.631c-1.058 0-1.932-.37-2.672-1.11a3.658 3.658 0 0 1-1.112-2.673v-.635h3.149v.635a.58.58 0 0 0 .185.45.58.58 0 0 0 .45.185h9.63a.58.58 0 0 0 .45-.185.58.58 0 0 0 .186-.45v-2.46a.58.58 0 0 0-.186-.45.58.58 0 0 0-.45-.185h-9.63c-1.058 0-1.932-.37-2.672-1.112a3.658 3.658 0 0 1-1.112-2.672v-2.46c0-1.059.37-1.932 1.112-2.673a3.658 3.658 0 0 1 2.672-1.111h9.63c1.059 0 1.932.37 2.673 1.111.74.715 1.111 1.614 1.111 2.673zM485.778 239.768c-1.032 0-1.931.37-2.672 1.11-.74.742-1.112 1.615-1.112 2.673v9.34c0 1.032.371 1.931 1.112 2.672.74.741 1.614 1.111 2.672 1.111h13.414v-3.148h-13.414a.581.581 0 0 1-.45-.185.58.58 0 0 1-.185-.45v-3.096h14.05v-6.244c0-1.032-.371-1.931-1.112-2.672-.74-.741-1.614-1.111-2.672-1.111zm0 3.148h9.631a.58.58 0 0 1 .45.185.58.58 0 0 1 .185.45v3.096h-10.901v-3.096a.58.58 0 0 1 .185-.45.581.581 0 0 1 .45-.185zM477.629 239.768h3.36l-6.35 16.906h-2.566l-5.689-12.567-5.371 12.567-.053-.026.027.026h-2.54l-6.641-16.906h3.333l4.578 11.218 4.868-11.218h3.598l5.16 11.218zM433.232 239.768v3.148h13.414a.58.58 0 0 1 .45.185.58.58 0 0 1 .185.45v3.096h-14.05v6.244c0 1.032.371 1.931 1.112 2.672.74.741 1.614 1.111 2.672 1.111h13.415v-13.123c0-1.032-.37-1.931-1.112-2.672-.74-.741-1.614-1.111-2.672-1.111zm3.148 10.027h10.901v3.731h-10.266a.58.58 0 0 1-.45-.185.58.58 0 0 1-.185-.45z"/><path style="fill:#fc60a8;fill-opacity:1;stroke-width:.927971" d="M544.46 266.95a23.838 23.838 0 0 0-23.839 23.837 23.838 23.838 0 0 0 23.839 23.839 23.838 23.838 0 0 0 23.838-23.839 23.838 23.838 0 0 0-23.838-23.838zm.135 8.261a15.847 15.847 0 0 1 15.848 15.848 15.847 15.847 0 0 1-15.848 15.846 15.847 15.847 0 0 1-15.847-15.846 15.847 15.847 0 0 1 15.847-15.848z"/><path style="fill:#fc60a8;fill-opacity:1;stroke-width:.956302" transform="rotate(-45)" d="M178.475 609.862h4.876v12.867h-4.876z"/><rect style="fill:#4385f5;fill-opacity:1;stroke-width:1.19527" width="8.08" height="20.65" x="181.69" y="619.625" ry="3.232" transform="scale(.9923 1.00765) rotate(-45)"/><path d="M458.461 307.138q3.287 0 5.337-.724 3.89-1.387 3.89-5.156 0-2.2-1.93-3.407-1.93-1.176-6.06-2.08l-4.704-1.056q-6.935-1.567-9.588-3.407-4.493-3.075-4.493-9.618 0-5.97 4.342-9.92t12.754-3.95q7.025 0 11.97 3.74 4.975 3.708 5.216 10.793h-8.925q-.24-4.01-3.497-5.698-2.171-1.116-5.397-1.116-3.588 0-5.729 1.448-2.14 1.447-2.14 4.04 0 2.382 2.11 3.558 1.357.784 5.789 1.839l7.658 1.84q5.036 1.205 7.598 3.225 3.98 3.136 3.98 9.076 0 6.09-4.673 10.13-4.643 4.01-13.146 4.01-8.683 0-13.658-3.95-4.975-3.98-4.975-10.914h8.864q.422 3.045 1.658 4.553 2.262 2.744 7.75 2.744zM514.452 294.143h-21.588v11.427h24.603v7.99h-33.679v-44.443h32.594v7.87h-23.518v9.437h21.588z" style="font-weight:700;font-size:233.384px;font-family:Helvetica;-inkscape-font-specification:'Helvetica Bold';fill:#4684f9;stroke-width:1.09399"/></g></svg>