<svg width="800mm" height="390mm" viewBox="0 0 800 390" xml:space="preserve" xmlns="http://www.w3.org/2000/svg"><path style="fill:#494368;fill-opacity:1;stroke-width:.717826" d="M573.605 78.836c-2.8 0-5.24 1.004-7.25 3.014s-3.014 4.378-3.014 7.25v25.34c0 2.8 1.005 5.24 3.015 7.25 2.01 2.01 4.378 3.014 7.25 3.014H610v-8.541h-36.395c-.502 0-.86-.145-1.22-.504-.358-.359-.501-.717-.501-1.22v-8.399H610V89.1c0-2.8-1.006-5.24-3.016-7.25s-4.378-3.014-7.25-3.014zm0 8.54h26.13c.502 0 .862.145 1.22.504.36.359.503.717.503 1.22v8.4h-29.574v-8.4c0-.503.143-.861.502-1.22s.717-.503 1.22-.503zM544.821 78.835c2.871 0 5.24 1.005 7.25 3.015 2.01 2.01 3.015 4.45 3.015 7.25v35.604h-8.47V89.1c0-.503-.144-.861-.503-1.22-.359-.36-.79-.503-1.292-.503h-18.09c-.502 0-.86.144-1.22.503-.358.359-.502.717-.502 1.22v35.604h-8.542V89.1c0-.503-.144-.861-.503-1.22-.358-.36-.717-.503-1.22-.503h-18.16c-.503 0-.862.144-1.221.503-.36.359-.503.717-.503 1.22v35.604h-8.542V78.835zM441.525 78.836c-2.8 0-5.24 1.004-7.25 3.014s-3.014 4.378-3.014 7.25v25.34c0 2.8 1.005 5.24 3.015 7.25 2.01 2.01 4.378 3.014 7.25 3.014h26.128c2.8 0 5.24-1.005 7.25-3.015 2.01-2.01 3.016-4.378 3.016-7.25V89.1c0-2.799-1.006-5.24-3.016-7.249-2.01-2.01-4.378-3.014-7.25-3.014zm0 8.54h26.13c.502 0 .862.217 1.22.504.36.359.503.717.503 1.22v25.34c0 .502-.143.86-.502 1.22-.36.358-.72.503-1.222.503h-26.129c-.502 0-.86-.145-1.22-.504-.358-.359-.501-.717-.501-1.22V89.1c0-.502.143-.86.502-1.219.358-.359.717-.503 1.22-.503zM423.437 89.172v1.723h-8.543v-1.723c0-.503-.143-.862-.502-1.22-.359-.36-.718-.503-1.22-.503h-26.13c-.502 0-.86.143-1.22.502-.358.36-.502.718-.502 1.22v6.677c0 .502.144.86.503 1.22.358.359.717.502 1.22.502h26.129c2.871 0 5.24 1.005 7.25 3.015 2.01 2.01 3.015 4.45 3.015 7.25v6.676c0 2.871-1.005 5.24-3.015 7.25-2.01 2.01-4.45 3.015-7.25 3.015h-26.13c-2.87 0-5.24-1.005-7.25-3.015-2.01-2.01-3.014-4.45-3.014-7.25v-1.723h8.542v1.723c0 .503.144.861.503 1.22.358.36.717.503 1.22.503h26.129c.502 0 .861-.144 1.22-.503s.502-.718.502-1.22v-6.676c0-.502-.143-.861-.502-1.22s-.718-.503-1.22-.503h-26.13c-2.87 0-5.24-1.005-7.25-3.014-2.01-2.01-3.014-4.45-3.014-7.25v-6.676c0-2.872 1.005-5.24 3.015-7.25 2.01-2.01 4.45-3.015 7.25-3.015h26.129c2.871 0 5.24 1.005 7.25 3.015 2.01 1.938 3.015 4.378 3.015 7.25zM332.56 78.836c-2.8 0-5.24 1.004-7.25 3.014s-3.015 4.378-3.015 7.25v25.34c0 2.8 1.005 5.24 3.015 7.25 2.01 2.01 4.379 3.014 7.25 3.014h36.393v-8.541H332.56c-.502 0-.862-.145-1.221-.504-.359-.359-.502-.717-.502-1.22v-8.399h38.116V89.1c0-2.8-1.004-5.24-3.014-7.25s-4.378-3.014-7.25-3.014zm0 8.54h26.13c.502 0 .86.145 1.219.504.359.359.502.717.502 1.22v8.4h-29.574v-8.4c0-.503.143-.861.502-1.22s.719-.503 1.221-.503zM310.45 78.835h9.117l-17.228 45.87h-6.963l-15.433-34.098-14.572 34.097-.143-.072.072.072h-6.892l-18.017-45.869h9.045l12.418 30.436 13.208-30.436h9.762l13.998 30.436zM190 78.836v8.54h36.393c.503 0 .861.145 1.22.504s.503.717.503 1.22v8.4H190v16.94c0 2.8 1.004 5.24 3.014 7.25s4.379 3.014 7.25 3.014h36.395V89.1c0-2.8-1.006-5.24-3.016-7.25s-4.378-3.014-7.25-3.014zm8.541 27.204h29.575v10.123h-27.852c-.502 0-.86-.145-1.22-.504-.359-.359-.503-.717-.503-1.22z"/><path style="fill:#fc60a8;fill-opacity:1;stroke-width:2.51763" d="M491.766 152.58a64.674 64.674 0 0 0-64.675 64.674 64.674 64.674 0 0 0 64.675 64.675 64.674 64.674 0 0 0 64.674-64.675 64.674 64.674 0 0 0-64.674-64.674zm.368 22.415a42.994 42.994 0 0 1 42.994 42.995 42.994 42.994 0 0 1-42.994 42.993 42.994 42.994 0 0 1-42.994-42.993 42.994 42.994 0 0 1 42.994-42.995z"/><path style="fill:#fc60a8;fill-opacity:1;stroke-width:2.59449" transform="rotate(-45)" d="M191.672 553.589h13.229v34.91h-13.229z"/><rect style="fill:#4385f5;fill-opacity:1;stroke-width:3.24282" width="21.922" height="56.023" x="191.915" y="577.731" ry="8.769" transform="scale(.9923 1.00765) rotate(-45)"/><path d="M258.448 261.613q8.917 0 14.479-1.963 10.552-3.763 10.552-13.988 0-5.972-5.235-9.244-5.235-3.19-16.442-5.644l-12.761-2.863q-18.814-4.254-26.013-9.243-12.188-8.344-12.188-26.095 0-16.197 11.78-26.913 11.779-10.716 34.601-10.716 19.06 0 32.475 10.144 13.498 10.061 14.152 29.285h-24.213q-.655-10.88-9.49-15.46-5.889-3.028-14.642-3.028-9.734 0-15.542 3.927-5.808 3.926-5.808 10.961 0 6.463 5.726 9.653 3.681 2.127 15.706 4.99l20.778 4.99q13.66 3.272 20.614 8.752 10.797 8.508 10.797 24.623 0 16.523-12.679 27.485-12.597 10.88-35.665 10.88-23.559 0-37.056-10.717-13.497-10.797-13.497-29.612h24.05q1.144 8.262 4.498 12.352 6.135 7.444 21.023 7.444zM410.353 226.357h-58.57v31.003h66.75v21.677h-91.372V158.462h88.428v21.35h-63.805v25.604h58.57z" style="font-weight:700;font-size:233.384px;font-family:Helvetica;-inkscape-font-specification:'Helvetica Bold';fill:#4684f9;stroke-width:2.96804"/></svg>