<svg width="800mm" height="390mm" viewBox="0 0 800 390" xml:space="preserve" xmlns="http://www.w3.org/2000/svg"><defs><mask id="a" fill="#fff"><path d="M29.583 0H4.438A4.45 4.45 0 0 0 0 4.438v56.208a4.45 4.45 0 0 0 4.438 4.437h38.458a4.45 4.45 0 0 0 4.437-4.437V17.75z"/></mask><mask id="c" fill="#fff"><path d="M29.583 0H4.438A4.45 4.45 0 0 0 0 4.438v56.208a4.45 4.45 0 0 0 4.438 4.437h38.458a4.45 4.45 0 0 0 4.437-4.437V17.75z"/></mask><mask id="d" fill="#fff"><path d="M29.583 0H4.438A4.45 4.45 0 0 0 0 4.438v56.208a4.45 4.45 0 0 0 4.438 4.437h38.458a4.45 4.45 0 0 0 4.437-4.437V17.75z"/></mask><mask id="e" fill="#fff"><path d="M29.583 0H4.438A4.45 4.45 0 0 0 0 4.438v56.208a4.45 4.45 0 0 0 4.438 4.437h38.458a4.45 4.45 0 0 0 4.437-4.437V17.75z"/></mask><mask id="f" fill="#fff"><path d="M29.583 0H4.438A4.45 4.45 0 0 0 0 4.438v56.208a4.45 4.45 0 0 0 4.438 4.437h38.458a4.45 4.45 0 0 0 4.437-4.437V17.75z"/></mask><radialGradient cx="1.758" cy="1.508" fx="1.758" fy="1.508" r="89.498" gradientTransform="matrix(.65094 0 0 .89504 102.958 56.796)" id="g" gradientUnits="userSpaceOnUse"><stop stop-color="#FFF" stop-opacity=".1" offset="0%"/><stop stop-color="#FFF" stop-opacity="0" offset="100%"/></radialGradient><linearGradient x1="39.104" y1="17.866" x2="39.104" y2="32.906" id="b" gradientTransform="scale(1.00011 .99989)" gradientUnits="userSpaceOnUse"><stop stop-color="#263238" stop-opacity=".2" offset="0%"/><stop stop-color="#263238" stop-opacity=".02" offset="100%"/></linearGradient></defs><path style="fill:#95a5a6;fill-opacity:1;fill-rule:evenodd;stroke:none;stroke-width:1.16377" d="M160.29 74.454a14.908 14.908 0 0 1-2.526 7.623 10.66 10.66 0 0 1-2.328 2.386c1.99.256 2.91-.117 3.41.756.182.342.182.752 0 1.094a14.733 14.733 0 0 1-6.703 6.273l2.676 2.514a1.164 1.164 0 0 1-.349 1.897 14.955 14.955 0 0 1-7.983.86c-2.863-.465-7.06-3.49-9.48-5.702.76-9.51-1.657-15.157 1.912-19.791.145-.07 3.752-.239 3.913-.237 0 0 5.389 0 8.484-3.154a87.363 87.363 0 0 0 6.878-8.019c.708-.967 2.239-.363 2.095.827 0 .372-.873 7.68-3.305 12.278l1.722-.687a1.164 1.164 0 0 1 1.583 1.082zM80.427 74.454a14.908 14.908 0 0 0 2.526 7.623 10.66 10.66 0 0 0 2.327 2.386c-1.99.256-2.91-.117-3.41.756a1.164 1.164 0 0 0 0 1.094 14.733 14.733 0 0 0 6.704 6.273L85.897 95.1a1.164 1.164 0 0 0 .35 1.897 14.955 14.955 0 0 0 7.983.86c2.862-.465 7.059-3.49 9.48-5.702-.76-9.51 3.645-14.891.076-19.526-.145-.07-5.741-.504-5.902-.502 0 0-5.388 0-8.484-3.154a87.364 87.364 0 0 1-6.878-8.019c-.707-.967-2.238-.363-2.095.827 0 .372.873 7.68 3.305 12.278l-1.722-.687a1.164 1.164 0 0 0-1.583 1.082z" transform="translate(49.138 -60.833) scale(2.91515)"/><path d="M29.583 0H4.438A4.45 4.45 0 0 0 0 4.438v56.208a4.45 4.45 0 0 0 4.438 4.437h38.458a4.45 4.45 0 0 0 4.437-4.437V17.75L36.98 10.354z" fill="#0f9d58" mask="url(#a)" transform="translate(349.275 104.735) scale(2.22512)" style="stroke:none;stroke-width:1"/><path d="M130.324 91.869v1.995c0 1.562-4.209 2.83-9.041 2.83-4.832 0-9.042-1.268-9.042-2.83v-1.995c2.186 1.41 6.334 1.83 9.042 1.83 2.718 0 6.86-.424 9.041-1.83zm-9.041-2.768c-2.718 0-6.861-.424-9.042-1.831v1.976c0 1.563 4.21 2.83 9.042 2.83s9.041-1.268 9.041-2.83V87.27c-2.186 1.41-6.333 1.831-9.041 1.831zm0-11.889c-4.832 0-9.042 1.268-9.042 2.832 0 1.563 4.21 2.83 9.042 2.83s9.041-1.268 9.041-2.83c0-1.564-4.209-2.832-9.041-2.832zm0 7.286c-2.718 0-6.861-.425-9.042-1.831v1.98c0 1.564 4.21 2.83 9.042 2.83s9.041-1.267 9.041-2.83v-1.98c-2.186 1.41-6.333 1.83-9.041 1.83z" style="fill:#f2f2f2;fill-rule:evenodd;stroke:none;stroke-width:.8567" transform="translate(49.138 -60.833) scale(2.91515)"/><path fill="url(#b)" mask="url(#c)" style="fill:url(#b);stroke:none;stroke-width:1" transform="translate(349.275 104.735) scale(2.22512)" d="m47.333 17.75-16.452-1.298L47.333 32.9z"/><path d="M125.538 56.796v10.161a3.386 3.386 0 0 0 3.388 3.387h10.161z" fill="#87ceac" style="stroke:none;stroke-width:.763296" transform="translate(49.138 -60.833) scale(2.91515)"/><path d="M481.417 388.958H456.27a4.45 4.45 0 0 0-4.438 4.438v56.208a4.45 4.45 0 0 0 4.438 4.438h38.458a4.45 4.45 0 0 0 4.438-4.438v-42.896z" transform="translate(-656.11 -760.744) scale(2.22512)" style="fill:none;fill-rule:evenodd;stroke:none;stroke-width:1"/><path d="M4.438 0A4.45 4.45 0 0 0 0 4.438v.37A4.45 4.45 0 0 1 4.438.37h25.145V0z" fill-opacity=".2" fill="#fff" mask="url(#d)" transform="translate(349.275 104.735) scale(2.22512)" style="stroke:none;stroke-width:1"/><path d="M42.896 64.714H4.437A4.45 4.45 0 0 1 0 60.276v.37a4.45 4.45 0 0 0 4.438 4.437h38.458a4.45 4.45 0 0 0 4.437-4.437v-.37a4.45 4.45 0 0 1-4.437 4.438z" fill-opacity=".2" fill="#263238" mask="url(#e)" transform="translate(349.275 104.735) scale(2.22512)" style="stroke:none;stroke-width:1"/><path d="M34.02 17.75a4.436 4.436 0 0 1-4.437-4.438v.37a4.436 4.436 0 0 0 4.438 4.438h13.312v-.37z" fill-opacity=".1" fill="#263238" mask="url(#f)" transform="translate(349.275 104.735) scale(2.22512)" style="stroke:none;stroke-width:1"/><path d="M125.538 56.796h-19.193a3.397 3.397 0 0 0-3.387 3.387v42.903a3.397 3.397 0 0 0 3.387 3.388H135.7a3.397 3.397 0 0 0 3.387-3.388V70.344z" fill="url(#g)" style="fill:url(#g);stroke:none;stroke-width:.763296" transform="translate(49.138 -60.833) scale(2.91515)"/><path style="fill:#fd5;fill-rule:evenodd;stroke:none;stroke-width:1.97739" d="M120.526 40.351c-7.336 0-19.774 1.464-19.774 6.922s12.438 6.92 19.774 6.92 19.774-1.462 19.774-6.92-12.438-6.922-19.774-6.922zm0 3.955c9.392 0 14.633 1.978 15.701 2.967-1.068.989-6.309 2.965-15.701 2.965-9.393 0-14.632-1.976-15.7-2.965 1.068-.989 6.307-2.967 15.7-2.967z" transform="translate(49.138 -60.833) scale(2.91515)"/><path style="fill:#95a5a6;fill-opacity:1;stroke-width:.172294" d="M138.598 121.649c-.585 0-.885.102-1.511.408-1.626.796-2.517 2.2-2.645 4.17-.103 1.567.255 2.692 1.197 3.762.813.924 1.438 1.285 2.539 1.467 1.755.291 3.32-.19 4.32-1.325.381-.432.693-.88.693-.994 0-.114-.319-.333-.707-.486l-.707-.278-.556.59c-.636.674-1.24.947-2.096.947-1.314 0-2.34-.798-2.742-2.133l-.24-.796h7.392l-.002-.646c-.003-1.003-.428-2.365-.953-3.053-.765-1.003-1.801-1.51-3.28-1.605a11.01 11.01 0 0 0-.702-.029zm.483 1.623c.447.006.91.12 1.355.35.471.244 1.204 1.226 1.204 1.614 0 .137-.8.195-2.683.195h-2.684l.4-.733c.511-.933 1.424-1.44 2.408-1.426zM124.755 124.512c0-3.728.032-6.81.072-6.849.04-.04.473-.044.962-.01l.891.06-.058 2.711-.058 2.712.46-.492c.938-1.006 2.819-1.31 4.192-.68 1.618.743 1.86 1.47 1.948 5.836l.069 3.489h-1.904l-.057-3.325c-.063-3.737-.157-4.064-1.303-4.543-.787-.329-1.592-.184-2.303.415-.903.76-1.016 1.262-1.016 4.518v2.935h-1.895zM157.598 131.283c-.273-.082-.687-.327-.921-.545-.834-.78-.909-1.13-.909-4.265v-2.938h-1.742l.053-.818.052-.818.776-.013.775-.013.05-1.408.05-1.41h1.709V121.953l1.163-.027 1.163-.026.053.818.052.819h-2.455l.055 2.739c.05 2.433.093 2.78.393 3.112.255.281.5.36 1.002.324.63-.045.68-.01.992.685l.328.733-.437.166c-.521.199-1.517.193-2.202-.012zM163.78 131.465c-1.204-.194-2.129-.867-2.897-2.107l-.288-.466.8-.354c.441-.195.813-.334.827-.31.374.663.735 1.074 1.18 1.345 1.222.746 3.209.178 3.218-.92.005-.606-.724-1.076-2.152-1.385-2.412-.522-3.445-1.376-3.445-2.848 0-1.603 1.25-2.65 3.287-2.753.703-.035 1.53.029 1.888.147.678.224 1.976 1.394 1.976 1.781 0 .128-.298.367-.662.531l-.663.299-.518-.518c-.656-.656-1.603-.854-2.527-.526-.805.285-1.063.63-.913 1.226.124.493.509.68 2.267 1.103 1.641.393 2.392.8 2.853 1.545.643 1.041.43 2.58-.466 3.367-.834.733-2.349 1.072-3.765.843zM149.131 121.64c-1.373 0-2.062.27-3.08 1.21-1.79 1.648-2.042 5.013-.525 7.002.577.757 1.87 1.493 2.83 1.612 1.916.238 3.595-.355 4.485-1.583.283-.392.515-.758.515-.815-.001-.124-1.543-.775-1.621-.684-.03.035-.146.238-.256.451-.268.514-1.403 1.077-2.17 1.077-1.188 0-2.416-.845-2.834-1.95-.383-1.014-.513-.979 3.545-.979h3.729l-.102-.854c-.339-2.865-1.971-4.487-4.516-4.487zm-.177 1.55c1.14 0 2.68 1.094 2.68 1.902 0 .322-.13.339-2.585.339-1.809 0-2.585-.059-2.585-.195 0-.75 1.577-2.045 2.49-2.045zM118.208 131.512c-1.547-.251-2.824-1.05-3.581-2.24-.788-1.239-.774-1.41.15-1.777l.791-.314.368.758c.422.868 1.478 1.709 2.355 1.873.869.163 1.964-.191 2.62-.847.486-.486.57-.692.57-1.39 0-.73-.074-.89-.676-1.463-.372-.353-1.05-.775-1.507-.937-3.024-1.07-3.999-1.696-4.56-2.93-.625-1.379-.235-2.818 1.068-3.934.92-.786 1.805-1.04 3.265-.937 1.622.115 2.93.883 3.56 2.09.294.561.221.675-.667 1.046-.634.265-.638.264-.932-.233-.888-1.504-3.59-1.616-4.435-.184-.782 1.323-.133 2.093 2.685 3.186 1.785.693 2.237.947 2.909 1.634 2.408 2.463.803 6.266-2.784 6.598-.422.039-.962.039-1.199 0z" transform="translate(49.138 -60.833) scale(2.91515)"/><text xml:space="preserve" style="font-weight:700;font-size:17.9037px;font-family:Helvetica;-inkscape-font-specification:'Helvetica Bold';fill:#fd5;fill-opacity:1;stroke:none;stroke-width:1.69169;stroke-dasharray:none" x="70.987" y="131.313" transform="translate(49.138 -60.833) scale(2.91515)"><tspan style="font-style:normal;font-variant:normal;font-weight:700;font-stretch:normal;font-family:Helvetica;-inkscape-font-specification:'Helvetica Bold';fill:#fd5;fill-opacity:1;stroke-width:1.69169" x="70.987" y="131.313">Holy</tspan></text></svg>