<?xml version="1.0" encoding="UTF-8" standalone="no"?>
<svg
   width="350mm"
   height="192mm"
   viewBox="0 0 350 192"
   xml:space="preserve"
   version="1.1"
   id="svg201"
   sodipodi:docname="holysheets-card.svg"
   inkscape:version="1.2.2 (b0a84865, 2022-12-01)"
   xmlns:inkscape="http://www.inkscape.org/namespaces/inkscape"
   xmlns:sodipodi="http://sodipodi.sourceforge.net/DTD/sodipodi-0.dtd"
   xmlns="http://www.w3.org/2000/svg"
   xmlns:svg="http://www.w3.org/2000/svg"><sodipodi:namedview
     id="namedview203"
     pagecolor="#ffffff"
     bordercolor="#000000"
     borderopacity="0.25"
     inkscape:showpageshadow="2"
     inkscape:pageopacity="0.0"
     inkscape:pagecheckerboard="0"
     inkscape:deskcolor="#d1d1d1"
     inkscape:document-units="mm"
     showgrid="false"
     inkscape:zoom="0.32521701"
     inkscape:cx="467.38022"
     inkscape:cy="362.83465"
     inkscape:window-width="1309"
     inkscape:window-height="430"
     inkscape:window-x="0"
     inkscape:window-y="25"
     inkscape:window-maximized="0"
     inkscape:current-layer="svg201" /><defs
     id="defs187"><path
       d="M29.583 0H4.438A4.45 4.45 0 0 0 0 4.438v56.208a4.45 4.45 0 0 0 4.438 4.437h38.458a4.45 4.45 0 0 0 4.437-4.437V17.75z"
       id="b" /><path
       d="M29.583 0H4.438A4.45 4.45 0 0 0 0 4.438v56.208a4.45 4.45 0 0 0 4.438 4.437h38.458a4.45 4.45 0 0 0 4.437-4.437V17.75z"
       id="a" /><path
       d="M29.583 0H4.438A4.45 4.45 0 0 0 0 4.438v56.208a4.45 4.45 0 0 0 4.438 4.437h38.458a4.45 4.45 0 0 0 4.437-4.437V17.75z"
       id="c" /><path
       d="M29.583 0H4.438A4.45 4.45 0 0 0 0 4.438v56.208a4.45 4.45 0 0 0 4.438 4.437h38.458a4.45 4.45 0 0 0 4.437-4.437V17.75z"
       id="d" /><path
       d="M29.583 0H4.438A4.45 4.45 0 0 0 0 4.438v56.208a4.45 4.45 0 0 0 4.438 4.437h38.458a4.45 4.45 0 0 0 4.437-4.437V17.75z"
       id="e" /></defs><path
     style="fill:#1eaf4c;fill-opacity:1;stroke:none;stroke-width:1.2112"
     d="M27.25 148.947a3.651 3.651 0 0 0-3.66 3.66v29.273a3.651 3.651 0 0 0 3.66 3.66h29.272a3.651 3.651 0 0 0 3.66-3.66v-29.273a3.651 3.651 0 0 0-3.66-3.66z"
     transform="matrix(2.0021 0 0 2.0021 91.14 -249.048)"
     id="path189" /><path
     style="color:#000;fill:#fbbc05;fill-opacity:1;stroke-width:.868628;-inkscape-stroke:none"
     d="M41.887 137.178c-3.421 0-6.517.34-8.834.92-1.159.29-2.12.63-2.878 1.077-.757.448-1.467 1.097-1.467 2.08 0 .983.71 1.632 1.467 2.08.758.448 1.72.788 2.878 1.077 2.317.58 5.413.92 8.834.92 3.42 0 6.515-.34 8.832-.92 1.158-.29 2.122-.63 2.879-1.077.757-.448 1.466-1.097 1.466-2.08 0-.983-.709-1.632-1.466-2.08-.757-.448-1.72-.788-2.879-1.077-2.317-.58-5.411-.92-8.832-.92zm0 2.087c3.28 0 6.252.34 8.326.858 1.038.26 1.852.572 2.323.85.47.278.44.427.44.282 0-.145.03.003-.44.282-.47.278-1.285.59-2.323.85-2.074.518-5.046.858-8.326.858-3.28 0-6.252-.34-8.327-.858-1.037-.26-1.852-.572-2.322-.85-.471-.279-.442-.427-.442-.282 0 .145-.03-.003.442-.282.47-.278 1.285-.59 2.322-.85 2.075-.518 5.047-.858 8.327-.858z"
     transform="matrix(2.0021 0 0 2.0021 91.14 -249.048)"
     id="path191" /><path
     style="fill:#fff;fill-opacity:1;stroke:none;stroke-width:1.39696"
     d="m53.58 158.743-11.67.024-11.671.023-.024 9.38-.024 9.379h23.39v-9.403zm-21.423 1.966h8.794v3.648h-8.794v-1.824zm10.665 0h8.887v3.648h-4.381c-2.41 0-4.41-.028-4.444-.063-.034-.034-.062-.855-.062-1.824zm-10.665 5.52h8.794v3.929h-8.794v-1.965zm10.665 0h8.887v3.929h-4.381c-2.41 0-4.41-.028-4.444-.062-.034-.035-.062-.92-.062-1.966zm-10.665 5.8h8.794v3.648h-8.794v-1.824zm10.665 0h8.887v3.648h-4.381c-2.41 0-4.41-.028-4.444-.062-.034-.035-.062-.856-.062-1.825z"
     transform="matrix(2.0021 0 0 2.0021 91.14 -249.048)"
     id="path193" /><text
     xml:space="preserve"
     style="font-size:23.6796px;font-family:'Arial Black';-inkscape-font-specification:'Arial Black, ';fill:#fbbc05;fill-opacity:1;stroke-width:2.24117"
     x="107.829"
     y="190.592"
     transform="translate(0,-29.288)"
     id="text199"><tspan
       style="font-style:normal;font-variant:normal;font-weight:700;font-stretch:normal;font-size:23.6796px;font-family:Helvetica;-inkscape-font-specification:'Helvetica Bold';fill:#fbbc05;fill-opacity:1;stroke-width:2.24117"
       x="107.829"
       y="190.592"
       id="tspan197">Holy<tspan
   style="fill:#b3b3b3;stroke-width:2.24117"
   id="tspan195">sheets!</tspan></tspan></text></svg>
