<svg width="800mm" height="390mm" viewBox="0 0 800 390" xml:space="preserve" xmlns="http://www.w3.org/2000/svg"><path style="fill:#495dd3;fill-opacity:1;stroke-width:.362678" d="M354.269 94.357v.05h-76.525V295.644h57.666V102.518c3.658-1.997 7.489-3.28 11.597-3.28 2.517 0 4.93.483 7.262 1.315V200.687h.021l-.174 13.022h-.042v3.142l-.01.718h.01v77.923h105.948l-47.309-81.94-.943.002c-13.83-1.034-23.415-7.533-32.13-14.285l.056-.014c19.833-5.338 34.205-20.626 38.86-41.336.676-3.006.795-4.63.79-10.792-.003-6.554-.096-7.642-.955-11.279-4.988-21.098-22.097-37.245-43.402-40.96-2.112-.369-5.751-.53-11.882-.53zm139.406 103.088c-8.338-.083-16.722 3.476-22.726 10.519-2.208 2.59-4.86 7.686-5.806 11.158-.896 3.288-.894 11.228 0 14.506.936 3.42 3.541 8.544 5.667 11.144 4.266 5.221 11.394 9.341 17.965 10.382 2.175.345 9.817-.084 11.968-.671h.004c3.316-.906 7.795-3.202 10.596-5.434 10.688-8.516 13.95-23.175 7.888-35.443-1.677-3.392-3.266-5.503-6.302-8.366-5.467-5.158-12.344-7.727-19.253-7.795z"/><g aria-label="Next.js Resume Template" style="font-weight:700;font-size:24.6905px;-inkscape-font-specification:'sans-serif Bold';fill:#495dd3;stroke-width:21.1633"><path d="M271.374 348.363h-3.714l-7.257-12.623v12.623h-3.46v-17.77h3.894l7.077 12.405v-12.406h3.46zM285.805 344.505q-.133 1.17-1.218 2.375-1.688 1.917-4.726 1.917-2.508 0-4.424-1.616-1.917-1.615-1.917-5.256 0-3.412 1.724-5.232 1.736-1.82 4.496-1.82 1.64 0 2.954.614 1.314.615 2.17 1.941.772 1.17 1 2.713.133.904.11 2.604h-8.994q.072 1.977 1.241 2.773.712.494 1.712.494 1.061 0 1.724-.603.362-.325.64-.904zm-3.4-4.027q-.085-1.362-.832-2.061-.735-.712-1.833-.712-1.193 0-1.856.748-.651.747-.82 2.025zM299.994 348.363h-4.28l-2.266-3.943-2.279 3.943H287l4.484-6.655-4.292-6.462h4.208l2.194 3.81 2.146-3.81h4.087l-4.316 6.402zM308.036 345.915v2.568l-1.628.06q-2.435.085-3.327-.843-.579-.591-.579-1.82v-8.09h-1.832v-2.448h1.832v-3.665h3.4v3.665h2.134v2.448h-2.134v6.944q0 .808.205 1.013.205.193 1.254.193h.325l.35-.025zM310.182 344.77h3.653v3.593h-3.653zM317.258 335.282h3.436v14.491q0 1.99-.783 2.942-.784.952-3.075.952-.156 0-.47-.012-.301-.012-.76-.024v-2.748q.29.024.41.024.121.012.218.012.506 0 .76-.253.264-.242.264-.953zm0-4.798h3.436v3.17h-3.436zM333.016 335.825q1.543.988 1.772 3.4h-3.436q-.073-.664-.374-1.05-.567-.699-1.929-.699-1.121 0-1.603.35-.47.35-.47.82 0 .59.506.856.506.277 3.58.952 2.05.482 3.075 1.459 1.012.988 1.012 2.471 0 1.953-1.458 3.195-1.447 1.23-4.485 1.23-3.099 0-4.581-1.302-1.471-1.314-1.471-3.34h3.484q.108.917.47 1.302.64.688 2.363.688 1.013 0 1.604-.302.602-.301.602-.904 0-.579-.482-.88-.482-.302-3.58-1.037-2.23-.555-3.147-1.386-.916-.82-.916-2.363 0-1.82 1.422-3.123 1.435-1.314 4.027-1.314 2.46 0 4.015.977zM352.377 341.394h-3.833v6.969h-3.63v-17.77h8.717q1.869.036 2.87.457 1.012.422 1.711 1.242.58.675.917 1.495.337.82.337 1.869 0 1.266-.639 2.495-.639 1.218-2.11 1.724 1.23.495 1.736 1.41.519.905.519 2.774v1.193q0 1.218.096 1.652.145.687.675 1.013v.446h-4.087q-.168-.591-.24-.953-.145-.747-.157-1.53l-.024-1.652q-.025-1.7-.627-2.267-.591-.567-2.23-.567zm2.255-3.23q1.109-.507 1.109-2.002 0-1.615-1.073-2.17-.603-.313-1.808-.313h-4.316v4.774h4.207q1.254 0 1.88-.29zM373.632 344.505q-.133 1.17-1.218 2.375-1.688 1.917-4.726 1.917-2.507 0-4.424-1.616-1.917-1.615-1.917-5.256 0-3.412 1.724-5.232 1.736-1.82 4.497-1.82 1.64 0 2.953.614 1.315.615 2.17 1.941.772 1.17 1.001 2.713.133.904.109 2.604h-8.994q.072 1.977 1.242 2.773.711.494 1.712.494 1.06 0 1.724-.603.361-.325.639-.904zm-3.4-4.027q-.084-1.362-.832-2.061-.735-.712-1.832-.712-1.194 0-1.857.748-.65.747-.82 2.025zM385.17 335.825q1.543.988 1.772 3.4h-3.436q-.073-.664-.374-1.05-.567-.699-1.929-.699-1.121 0-1.603.35-.47.35-.47.82 0 .59.506.856.506.277 3.58.952 2.05.482 3.075 1.459 1.012.988 1.012 2.471 0 1.953-1.458 3.195-1.447 1.23-4.485 1.23-3.099 0-4.582-1.302-1.47-1.314-1.47-3.34h3.484q.108.917.47 1.302.639.688 2.363.688 1.013 0 1.603-.302.603-.301.603-.904 0-.579-.482-.88-.482-.302-3.58-1.037-2.231-.555-3.147-1.386-.917-.82-.917-2.363 0-1.82 1.423-3.123 1.435-1.314 4.027-1.314 2.46 0 4.014.977zM398.274 346.506q-.048.06-.241.362-.193.301-.458.53-.808.724-1.567.989-.748.265-1.76.265-2.918 0-3.93-2.098-.567-1.157-.567-3.411v-7.921h3.52v7.92q0 1.122.265 1.688.47 1.001 1.845 1.001 1.76 0 2.41-1.423.338-.771.338-2.037v-7.15h3.485v13.142h-3.34zM412.307 338.839q-.434-.953-1.7-.953-1.47 0-1.977.953-.277.542-.277 1.615v7.909h-3.484v-13.117h3.34v1.917q.638-1.025 1.205-1.459 1-.772 2.592-.772 1.507 0 2.435.664.748.614 1.133 1.579.676-1.157 1.676-1.7 1.061-.543 2.363-.543.868 0 1.712.338t1.531 1.182q.555.687.748 1.687.12.663.12 1.941l-.024 8.283h-3.52v-8.367q0-.747-.241-1.23-.459-.916-1.688-.916-1.423 0-1.965 1.181-.278.627-.278 1.507v7.825h-3.46v-7.825q0-1.169-.24-1.7zM438.131 344.505q-.133 1.17-1.218 2.375-1.687 1.917-4.726 1.917-2.507 0-4.424-1.616-1.917-1.615-1.917-5.256 0-3.412 1.724-5.232 1.736-1.82 4.497-1.82 1.64 0 2.954.614 1.314.615 2.17 1.941.771 1.17 1 2.713.133.904.109 2.604h-8.994q.072 1.977 1.242 2.773.711.494 1.712.494 1.06 0 1.724-.603.361-.325.639-.904zm-3.4-4.027q-.084-1.362-.832-2.061-.735-.712-1.832-.712-1.194 0-1.857.748-.65.747-.82 2.025zM460.663 330.592v3.147h-5.316v14.624h-3.738v-14.624h-5.34v-3.147zM471.984 344.505q-.133 1.17-1.218 2.375-1.687 1.917-4.726 1.917-2.507 0-4.424-1.616-1.917-1.615-1.917-5.256 0-3.412 1.724-5.232 1.736-1.82 4.497-1.82 1.64 0 2.954.614 1.314.615 2.17 1.941.771 1.17 1 2.713.133.904.109 2.604h-8.994q.072 1.977 1.242 2.773.711.494 1.712.494 1.06 0 1.724-.603.361-.325.639-.904zm-3.4-4.027q-.084-1.362-.832-2.061-.735-.712-1.832-.712-1.194 0-1.857.748-.65.747-.82 2.025zM481.846 338.839q-.434-.953-1.7-.953-1.471 0-1.977.953-.278.542-.278 1.615v7.909h-3.484v-13.117h3.34v1.917q.639-1.025 1.205-1.459 1-.772 2.592-.772 1.507 0 2.436.664.747.614 1.133 1.579.675-1.157 1.676-1.7 1.06-.543 2.363-.543.868 0 1.712.338.843.338 1.53 1.182.555.687.748 1.687.12.663.12 1.941l-.023 8.283h-3.52v-8.367q0-.747-.242-1.23-.458-.916-1.688-.916-1.422 0-1.965 1.181-.277.627-.277 1.507v7.825h-3.46v-7.825q0-1.169-.241-1.7zM507.428 336.632q1.592 1.7 1.592 4.992 0 3.472-1.568 5.292-1.555 1.82-4.014 1.82-1.567 0-2.604-.783-.567-.434-1.11-1.266v6.848h-3.4v-18.313h3.292v1.94q.555-.855 1.182-1.35 1.145-.88 2.724-.88 2.303 0 3.906 1.7zm-1.953 5.16q0-1.519-.699-2.688-.687-1.17-2.242-1.17-1.869 0-2.568 1.773-.362.94-.362 2.387 0 2.29 1.218 3.219.723.542 1.712.542 1.434 0 2.182-1.109.76-1.11.76-2.954zM511.576 330.592h3.436v17.77h-3.436zM518.857 336.644q1.363-1.736 4.678-1.736 2.158 0 3.834.856 1.676.856 1.676 3.231v6.028q0 .627.024 1.52.036.674.205.916.168.24.506.397v.507h-3.737q-.157-.398-.217-.748t-.097-.795q-.711.771-1.64 1.314-1.109.639-2.507.639-1.784 0-2.954-1.013-1.157-1.025-1.157-2.893 0-2.424 1.869-3.509 1.024-.59 3.013-.844l1.17-.144q.952-.12 1.362-.302.736-.313.736-.976 0-.808-.567-1.11-.555-.313-1.64-.313-1.217 0-1.724.603-.361.446-.482 1.206h-3.315q.108-1.724.964-2.834zm2.556 9.235q.482.398 1.182.398 1.109 0 2.037-.65.94-.652.977-2.376v-1.278q-.326.205-.663.338-.326.12-.905.229l-.771.144q-1.085.193-1.555.47-.796.47-.796 1.46 0 .88.494 1.265zM538.11 345.915v2.568l-1.627.06q-2.435.085-3.327-.843-.579-.591-.579-1.82v-8.09h-1.833v-2.448h1.833v-3.665h3.4v3.665h2.134v2.448h-2.134v6.944q0 .808.205 1.013.205.193 1.254.193h.325l.35-.025zM551.565 344.505q-.133 1.17-1.218 2.375-1.687 1.917-4.726 1.917-2.507 0-4.424-1.616-1.917-1.615-1.917-5.256 0-3.412 1.724-5.232 1.736-1.82 4.497-1.82 1.64 0 2.954.614 1.314.615 2.17 1.941.771 1.17 1 2.713.133.904.109 2.604h-8.994q.072 1.977 1.242 2.773.711.494 1.712.494 1.06 0 1.724-.603.361-.325.639-.904zm-3.4-4.027q-.084-1.362-.832-2.061-.735-.712-1.832-.712-1.194 0-1.857.748-.65.747-.82 2.025z" style="-inkscape-font-specification:'Helvetica Bold'"/></g></svg>