<?xml version="1.0" encoding="UTF-8" standalone="no"?>
<!-- Created with Inkscape (http://www.inkscape.org/) -->

<svg
   width="210mm"
   height="297mm"
   viewBox="0 0 210 297"
   version="1.1"
   id="svg5"
   xml:space="preserve"
   inkscape:version="1.2.2 (b0a84865, 2022-12-01)"
   sodipodi:docname="resufolio.svg"
   xmlns:inkscape="http://www.inkscape.org/namespaces/inkscape"
   xmlns:sodipodi="http://sodipodi.sourceforge.net/DTD/sodipodi-0.dtd"
   xmlns="http://www.w3.org/2000/svg"
   xmlns:svg="http://www.w3.org/2000/svg"><sodipodi:namedview
     id="namedview7"
     pagecolor="#ffffff"
     bordercolor="#000000"
     borderopacity="0.25"
     inkscape:showpageshadow="2"
     inkscape:pageopacity="0.0"
     inkscape:pagecheckerboard="0"
     inkscape:deskcolor="#d1d1d1"
     inkscape:document-units="mm"
     showgrid="false"
     inkscape:zoom="4.3339961"
     inkscape:cx="326.83463"
     inkscape:cy="323.14288"
     inkscape:window-width="1440"
     inkscape:window-height="847"
     inkscape:window-x="0"
     inkscape:window-y="25"
     inkscape:window-maximized="0"
     inkscape:current-layer="layer1" /><defs
     id="defs2" /><g
     inkscape:label="Layer 1"
     inkscape:groupmode="layer"
     id="layer1"><rect
       style="fill:none;fill-opacity:1;stroke:#000000;stroke-width:1;stroke-dasharray:none;stroke-opacity:1"
       id="rect6514"
       width="27.003582"
       height="11.738496"
       x="45.274147"
       y="79.130035"
       rx="1.8995421"
       ry="1.9" /><path
       style="fill:#ffd42a;stroke:#ffffff;stroke-width:0.3;stroke-dasharray:none"
       d="m 57.444074,92.738063 c -0.09264,-0.0421 -0.168439,-0.14667 -0.18448,-0.2546 -0.0085,-0.0572 0.139127,-0.7888 0.619647,-3.07059 0.346946,-1.647507 0.635283,-3.010258 0.64075,-3.028332 0.0094,-0.03111 -0.07118,-0.03287 -1.507841,-0.03328 -1.432545,-3.33e-4 -1.521999,-0.0023 -1.592902,-0.03491 -0.08935,-0.04103 -0.129395,-0.08291 -0.168305,-0.176041 -0.04042,-0.09673 -0.03603,-0.181728 0.01437,-0.278438 0.03184,-0.06111 3.908114,-5.771189 5.678645,-8.365136 0.151532,-0.222006 0.235658,-0.280195 0.385955,-0.266955 0.165591,0.01457 0.313333,0.162985 0.31462,0.316014 3.33e-4,0.04122 -1.239923,5.971098 -1.269291,6.06864 -0.0093,0.03108 0.06312,0.03287 1.339579,0.03287 h 1.349474 l 0.08364,0.04225 c 0.134922,0.06816 0.207059,0.212419 0.179548,0.35906 -0.0065,0.0348 -0.0651,0.146774 -0.13017,0.248838 -0.06507,0.102064 -0.283296,0.443333 -0.484952,0.758372 -0.651031,1.01709 -1.138269,1.778463 -1.580417,2.469616 -0.514439,0.804154 -0.637163,0.995924 -1.730679,2.704372 -0.462791,0.72304 -0.997484,1.55971 -1.188203,1.85926 -0.190722,0.29954 -0.370813,0.56735 -0.40021,0.59511 -0.09628,0.091 -0.240649,0.11204 -0.368776,0.0539 z"
       id="path6508" /><path
       d="m 50.259238,85.766161 h -1.533755 v 2.78777 H 47.27372 v -7.109294 h 3.487123 q 0.747586,0.01447 1.147905,0.183279 0.405143,0.168809 0.684885,0.496782 0.23151,0.270095 0.366558,0.598068 0.135047,0.327973 0.135047,0.747585 0,0.506429 -0.255625,0.998388 -0.255626,0.487136 -0.844048,0.689708 0.491959,0.197748 0.69453,0.564306 0.207395,0.361735 0.207395,1.10932 v 0.47749 q 0,0.487136 0.03859,0.660769 0.05788,0.274918 0.270095,0.405143 v 0.178456 h -1.635041 q -0.06752,-0.236334 -0.09646,-0.381028 -0.05788,-0.299034 -0.0627,-0.612537 l -0.0096,-0.660769 q -0.0096,-0.680061 -0.250803,-0.906749 -0.236333,-0.226687 -0.892279,-0.226687 z m 0.901925,-1.292599 q 0.443728,-0.202571 0.443728,-0.800639 0,-0.6463 -0.429258,-0.868164 -0.241157,-0.125401 -0.72347,-0.125401 h -1.72668 v 1.90996 h 1.683272 q 0.501605,0 0.752408,-0.115756 z"
       style="font-weight:bold;font-size:9.87777px;font-family:Helvetica;-inkscape-font-specification:'Helvetica Bold';fill:#1a1a1a;fill-opacity:1;stroke-width:0.056"
       id="path6510" /><path
       d="m 70.390983,82.698651 h -3.564294 v 1.635041 h 3.120566 v 1.234721 h -3.120566 v 2.980695 H 65.350812 V 81.44946 h 5.040171 z"
       style="font-weight:bold;font-size:9.87777px;font-family:Helvetica;-inkscape-font-specification:'Helvetica Bold';fill:#1a1a1a;fill-opacity:1;stroke-width:0.056"
       id="path6512" /><g
       id="g1911"><rect
         style="fill:#ffffff;fill-opacity:1;stroke:#000000;stroke-width:1;stroke-dasharray:none;stroke-opacity:1"
         id="rect298"
         width="10.876335"
         height="12.094305"
         x="82.567581"
         y="79.440521"
         rx="1.9"
         ry="1.9" /><path
         style="fill:#ffd42a;stroke:#ffffff;stroke-width:0.3;stroke-dasharray:none"
         d="m 86.169793,93.22645 c -0.09264,-0.0421 -0.168439,-0.14667 -0.18448,-0.2546 -0.0085,-0.0572 0.139127,-0.7888 0.61965,-3.07059 0.346937,-1.647507 0.635277,-3.010258 0.640747,-3.028332 0.009,-0.03111 -0.0712,-0.03287 -1.507841,-0.03328 -1.432545,-3.33e-4 -1.521999,-0.0023 -1.592902,-0.03491 -0.08935,-0.04103 -0.129395,-0.08291 -0.168305,-0.176041 -0.04042,-0.09673 -0.03603,-0.181728 0.01437,-0.278438 0.03184,-0.06111 3.908105,-5.771189 5.678629,-8.365136 0.15154,-0.222006 0.23566,-0.280195 0.38596,-0.266955 0.16559,0.01457 0.31333,0.162985 0.31462,0.316014 3.3e-4,0.04122 -1.23992,5.971098 -1.26929,6.06864 -0.009,0.03108 0.0631,0.03287 1.33958,0.03287 h 1.34947 l 0.0836,0.04225 c 0.13493,0.06816 0.20706,0.212419 0.17955,0.35906 -0.007,0.0348 -0.0651,0.146774 -0.13017,0.248838 -0.0651,0.102064 -0.2833,0.443333 -0.48495,0.758372 -0.65103,1.01709 -1.13827,1.778463 -1.58042,2.469616 -0.51444,0.804154 -0.63716,0.995924 -1.730677,2.704372 -0.462787,0.72304 -0.997474,1.55971 -1.188194,1.85926 -0.190717,0.29954 -0.370817,0.56735 -0.400207,0.59511 -0.0963,0.091 -0.240651,0.11204 -0.368778,0.0539 z"
         id="path352" /><path
         d="m 88.025039,86.254546 h -1.533755 v 2.78777 h -1.451763 v -7.109294 h 3.487123 q 0.747586,0.01447 1.147905,0.183279 0.405143,0.168809 0.684885,0.496782 0.23151,0.270095 0.366558,0.598068 0.135047,0.327973 0.135047,0.747585 0,0.506429 -0.255625,0.998388 -0.255626,0.487136 -0.844048,0.689708 0.491959,0.197748 0.69453,0.564306 0.207395,0.361735 0.207395,1.10932 v 0.47749 q 0,0.487136 0.03859,0.660769 0.05788,0.274918 0.270095,0.405143 v 0.178456 h -1.635041 q -0.06752,-0.236334 -0.09646,-0.381028 -0.05788,-0.299034 -0.0627,-0.612537 l -0.0096,-0.660769 q -0.0096,-0.680061 -0.250803,-0.906749 -0.236333,-0.226687 -0.892279,-0.226687 z m 0.901925,-1.292599 q 0.443728,-0.202571 0.443728,-0.800639 0,-0.6463 -0.429258,-0.868164 -0.241157,-0.125401 -0.72347,-0.125401 h -1.72668 v 1.90996 h 1.683272 q 0.501605,0 0.752408,-0.115756 z"
         style="font-weight:bold;font-size:9.87777px;font-family:Helvetica;-inkscape-font-specification:'Helvetica Bold';fill:#1a1a1a;fill-opacity:1;stroke-width:0.056"
         id="path354" /></g></g></svg>
