<svg width="800mm" height="390mm" viewBox="0 0 800 390" xml:space="preserve" xmlns="http://www.w3.org/2000/svg"><defs><clipPath clipPathUnits="userSpaceOnUse" id="a"><path style="fill:#000;stroke-width:.570599" d="m-10.359-40.592-3.416 1.678c-4.351 2.136-8.176 5.96-10.312 10.312l-1.678 3.416v151.78l1.549 3.138c2.9 5.873 6.895 9.518 12.602 11.494 2.829.98 9.119 1.021 135.06.9L255.54 142l3.273-1.534c4.152-1.945 8.258-6.057 10.436-10.449l1.697-3.424V-25.185l-1.678-3.417c-2.14-4.358-6.28-8.498-10.455-10.455l-3.273-1.535H122.59z"/></clipPath></defs><path style="fill:#fcd34d;fill-opacity:1;stroke-width:.722909" d="M182.011-52.407c177.676 0 163.057-.46 165.857 5.237 1.37 2.786 1.394 4.608 1.212 95.474-.183 91.323-.206 92.662-1.605 94.63-.78 1.097-2.624 2.504-4.095 3.128-2.382 1.01-20.042 1.134-161.415 1.12-153.06-.016-158.843-.065-161.58-1.382-5.374-2.586-4.944 5.536-5.153-97.534-.212-104.16-.615-96.3 5.09-99.168 2.99-1.502 3.302-1.505 161.69-1.505z" transform="matrix(.86733 0 0 .86733 242.01 101.107)"/><path style="fill:#38bdf8;fill-opacity:1;stroke-width:.214946" d="M132.463 217.227c-29.712-1.084-55.084-8.927-77.117-23.836-12.161-8.23-23.017-17.923-39.76-35.505-18.526-19.454-27.766-27.24-39.266-33.09-4.633-2.355-8.208-3.731-12.73-4.899-6.625-1.71-12.513-2.563-19.093-2.764-18.735-.573-36.246 5.767-52.442 18.985-7.365 6.011-16.152 15.412-22.646 24.228-.46.624-.858 1.11-.886 1.082-.057-.058.421-1.936 1.649-6.472 5.771-21.32 14.363-40.03 25.255-55 5.926-8.146 13.226-15.929 20.642-22.008 18.7-15.332 41.868-24.243 70.116-26.97 12.063-1.164 28.22-.989 40.202.436 26.982 3.208 49.446 12.284 70.434 28.458 9.061 6.982 13.933 11.537 31.505 29.456 16.051 16.369 19.857 19.99 26.09 24.823 11.248 8.723 21.634 13.246 35.221 15.34 4.874.75 8.416.955 14.214.822 6.792-.155 10.536-.663 16.654-2.26 18.67-4.87 36.465-17.815 51.838-37.71 1.243-1.61 2.52-3.23 2.837-3.602l.576-.676-.643 2.504c-11.749 45.705-33.841 76.908-66.373 93.744-8.562 4.43-16.386 7.416-25.998 9.921-11.452 2.985-22.102 4.471-35.853 5.003-6.045.234-7.793.232-14.426-.01zM268.769 50.075c-14.394-.695-24.741-2.161-36.017-5.103-23.023-6.006-42.216-16.875-62.335-35.3-4.665-4.273-12.35-11.936-19.71-19.652-6.942-7.28-13.95-14.233-18.032-17.896-12.461-11.178-23.118-17.15-35.748-20.033-13.175-3.007-25.49-2.969-37.232.117-10.452 2.746-19.62 7.347-29.287 14.697-7.716 5.867-16.351 14.686-23.541 24.04a567.825 567.825 0 0 1-2.27 2.94c-.28.355-.194-.207.382-2.48 6.216-24.542 16.28-46.175 29.025-62.394 10.635-13.533 23.305-23.948 38.42-31.582 16.046-8.103 32.555-12.377 54.417-14.087 4.636-.363 21.655-.36 26.412.005 31.8 2.436 56.04 11.396 79.345 29.33 9.12 7.02 14.246 11.805 31.504 29.409 16.798 17.135 20.31 20.466 26.613 25.247 12.637 9.584 23.536 13.866 39.684 15.593 3.099.331 11.245.331 14.426 0 9.72-1.011 18.27-3.586 27.155-8.18 6.452-3.334 13.101-7.942 19.2-13.304 5.244-4.61 12.517-12.512 17.506-19.019 3.155-4.114 2.948-4.01 2.204-1.107-13.309 51.96-40.102 85.23-80.597 100.077-12.215 4.479-26.07 7.257-41.794 8.38-3.179.228-16.92.438-19.73.302z" clip-path="url(#a)" transform="translate(267.787 89.648) scale(1.07849)"/><path style="fill:#494368;fill-opacity:1;stroke-width:.398105" d="M216.188 111.57c0-.637 5.641-33.08 5.889-33.867.252-.801 1.814.635 14.596 13.42 7.872 7.876 14.231 14.387 14.131 14.47-.1.082-7.705 1.445-16.901 3.028-9.196 1.584-16.944 2.95-17.218 3.038-.273.087-.497.048-.497-.088zm24.183-24.312-14.23-14.234 32.842-32.842L291.825 7.34l14.332 14.33 14.333 14.329-32.743 32.746c-18.009 18.01-32.834 32.747-32.945 32.747-.111 0-6.605-6.406-14.431-14.234zm69.797-70.043L296.066 3.06l6.98-6.919 6.98-6.918h1.867c1.027 0 2.351.255 2.942.568.592.313 6.123 5.642 12.292 11.844 11.932 11.995 12.226 12.389 11.488 15.354-.285 1.143-13.158 14.457-13.931 14.408-.228-.014-6.76-6.396-14.516-14.182z" transform="matrix(.86733 0 0 .86733 242.01 101.107)"/><path style="fill:#494368;fill-opacity:1;stroke-width:.709519" d="M16.84-63.687 12.592-61.6C7.18-58.944 2.425-54.188-.231-48.777l-2.087 4.247v188.732l1.926 3.903c3.607 7.303 8.574 11.835 15.67 14.293 3.518 1.218 11.339 1.27 167.943 1.12l164.254-.159 4.07-1.906c5.162-2.42 10.268-7.532 12.976-12.993l2.11-4.258V-44.53l-2.085-4.247c-2.661-5.42-7.809-10.568-13-13l-4.071-1.91H182.157zM182.01-46.303c177.676 0 163.057-.444 165.857 5.045 1.37 2.684 1.394 4.438 1.212 91.97-.183 87.971-.206 89.262-1.605 91.156-.78 1.058-2.624 2.413-4.095 3.014-2.382.974-20.042 1.093-161.415 1.079-153.06-.015-158.843-.063-161.58-1.331-5.374-2.491-4.944 5.333-5.153-93.955-.212-100.337-.615-92.766 5.09-95.528 2.99-1.447 3.302-1.45 161.69-1.45z" transform="matrix(.86733 0 0 .86733 242.01 101.107)"/><path style="fill:#494368;fill-opacity:1;stroke-width:.709519" d="M49.667-10.245v33.81h43.76v85.412h33.809V23.565h43.76v-33.81H110.33z" transform="matrix(.86733 0 0 .86733 242.01 101.107)"/><text xml:space="preserve" style="font-weight:700;font-size:58.4868px;font-family:Helvetica;-inkscape-font-specification:'Helvetica Bold';fill:#494368;fill-opacity:1;stroke-width:5.5263" x="28.044" y="236.104" transform="matrix(.86733 0 0 .86733 242.01 101.107)"><tspan x="28.044" y="236.104" style="stroke-width:5.5263">- taildown -</tspan></text><text xml:space="preserve" style="font-weight:700;font-size:37.3333px;font-family:Helvetica;-inkscape-font-specification:'Helvetica Bold';fill:#afaac8;fill-opacity:1;stroke-width:5.5263" x="30.91" y="279.505" transform="matrix(.86733 0 0 .86733 242.01 101.107)"><tspan x="30.91" y="279.505" style="font-size:37.3333px;fill:#afaac8;fill-opacity:1;stroke-width:5.5263">markdown editor</tspan></text></svg>